<svg width="59" height="73" viewBox="0 0 59 73" fill="none" xmlns="http://www.w3.org/2000/svg">
<path fill-rule="evenodd" clip-rule="evenodd" d="M32.1915 19.166C32.4532 19.166 32.7041 19.1765 32.8885 19.3637L35.5552 22.0716C35.84 22.3608 35.847 22.822 35.559 23.1079L23.796 34.7837C23.5079 35.0696 23.035 35.0715 22.745 34.7876L20.4093 32.5009C20.1192 32.2171 20.1268 31.7596 20.4055 31.4648L27.5757 23.8773H20.7432C20.3344 23.8773 20 23.5475 20 23.1445V19.8989C20 19.4958 20.3344 19.166 20.7432 19.166H32.1915Z" fill="#161616"/>
<path fill-rule="evenodd" clip-rule="evenodd" d="M31.8906 34.2546V28.9495C31.8906 28.5464 32.225 28.2168 32.6337 28.2168H35.925C36.3338 28.2168 36.6681 28.5464 36.6681 28.9495V34.2546C36.6681 34.6577 36.3338 34.9873 35.925 34.9873H32.6337C32.225 34.9873 31.8906 34.6577 31.8906 34.2546Z" fill="#6666CC"/>
<path fill-rule="evenodd" clip-rule="evenodd" d="M27.524 70.2984C28.9624 70.2984 54.6633 42.8383 54.6633 27.8497C54.6633 12.8611 42.5125 0.710449 27.524 0.710449C12.5354 0.710449 0.384766 12.8611 0.384766 27.8497C0.384766 42.8383 26.0857 70.2984 27.524 70.2984ZM27.524 41.4239C35.1233 41.4239 41.2837 35.2633 41.2837 27.6641C41.2837 20.0649 35.1233 13.9045 27.524 13.9045C19.9248 13.9045 13.7645 20.0649 13.7645 27.6641C13.7645 35.2633 19.9248 41.4239 27.524 41.4239Z" fill="#161616"/>
<path fill-rule="evenodd" clip-rule="evenodd" d="M0.384766 27.8497C0.384766 42.8383 26.0857 70.2984 27.524 70.2984V41.4239C19.9248 41.4235 13.7645 35.2633 13.7645 27.6641C13.7645 20.0649 19.9248 13.9045 27.524 13.9045V0.710449C12.5354 0.710449 0.384766 12.8611 0.384766 27.8497Z" fill="#161616"/>
</svg>
