<svg width="226" height="179" viewBox="0 0 226 179" fill="none" xmlns="http://www.w3.org/2000/svg">
<g clip-path="url(#clip0_463_6278)">
<path fill-rule="evenodd" clip-rule="evenodd" d="M40.0336 168.842L29.5394 179.01H10.4843L0 168.842V135.18L10.4843 124.942H29.5493L40.0336 135.18V168.842ZM30.3865 164.851V139.171L25.6626 134.568H14.3511L9.6571 139.161V164.851L14.3511 169.424H25.6725L30.3865 164.851Z" fill="white"/>
<path fill-rule="evenodd" clip-rule="evenodd" d="M134.092 168.842L123.598 179.01H104.543L94.0586 168.842V135.18L104.543 124.942H123.608L134.092 135.18V168.842ZM124.445 164.851V139.171L119.721 134.568H108.41L103.716 139.161V164.851L108.41 169.424H119.731L124.445 164.851Z" fill="white"/>
<path fill-rule="evenodd" clip-rule="evenodd" d="M150.737 156.829V178.539H141.09V124.942H170.639L181.123 135.18V146.591L170.639 156.829H150.737ZM171.476 142.58V139.161L166.752 134.558H150.737V147.183H166.752L171.476 142.58Z" fill="white"/>
<path fill-rule="evenodd" clip-rule="evenodd" d="M210.682 171.098H189.943L187.102 178.539H174.625L197.098 125.443H203.517L225.99 178.539H213.513L210.672 171.098H210.682ZM207.643 161.512L200.317 140.324L192.992 161.512H207.643Z" fill="white"/>
<path fill-rule="evenodd" clip-rule="evenodd" d="M77.4158 134.558H56.6764V178.539H47.0293V124.942H87.0629V178.539H77.4158V134.558Z" fill="white"/>
<path fill-rule="evenodd" clip-rule="evenodd" d="M113.004 0L158.071 26.1817V78.545L113.004 104.727L67.9277 78.545V26.1817L113.004 0Z" fill="white"/>
<path fill-rule="evenodd" clip-rule="evenodd" d="M113.005 52.3634V77.6325L120.26 73.421V56.5749L134.76 48.1518V39.7288L113.005 52.3634ZM98.5039 35.5172L113.005 27.0942L127.505 35.5172L113.005 43.9403L98.5039 35.5172Z" fill="#F9AE0D"/>
<path fill-rule="evenodd" clip-rule="evenodd" d="M113.005 86.0656L84.0033 69.2195V35.5273L76.748 31.3157V73.4411L113.005 94.4987V86.0756V86.0656ZM91.2486 39.7288L113.005 52.3634V77.6325L105.749 73.421V56.5749L91.2486 48.1518V39.7288Z" fill="#DB7D0C"/>
<path fill-rule="evenodd" clip-rule="evenodd" d="M149.251 31.3057L113.005 10.248L76.748 31.3057L83.9934 35.5172L113.005 18.6711L142.006 35.5172L149.251 31.3057Z" fill="#F9AE0D"/>
<path fill-rule="evenodd" clip-rule="evenodd" d="M142.005 69.2095L113.004 86.0656V94.4887L149.25 73.421V31.3057L142.005 35.5173V69.2095Z" fill="#F28D19"/>
</g>
<defs>
<clipPath id="clip0_463_6278">
<rect width="226" height="179" fill="white"/>
</clipPath>
</defs>
</svg>
