<svg width="15" height="16" viewBox="0 0 15 16" fill="none" xmlns="http://www.w3.org/2000/svg">
<path fill-rule="evenodd" clip-rule="evenodd" d="M10.7003 14.5102V9.69479C10.7003 9.32889 11.0012 9.02968 11.3691 9.02968H14.3313C14.6992 9.02968 15 9.32889 15 9.69479V14.5102C15 14.8761 14.6992 15.1753 14.3313 15.1753H11.3691C11.0012 15.1753 10.7003 14.8761 10.7003 14.5102Z" fill="#F5F5F5"/>
<path fill-rule="evenodd" clip-rule="evenodd" d="M10.9723 0.814026C11.2079 0.814029 11.4337 0.823547 11.5997 0.993476L13.9997 3.45145C14.256 3.7139 14.2623 4.13261 14.0031 4.3921L3.41636 14.9903C3.15709 15.2498 2.7315 15.2515 2.47051 14.9937L0.36838 12.9181C0.107287 12.6605 0.114131 12.2452 0.364919 11.9776L6.81816 5.09044H0.668863C0.300966 5.09044 0 4.79113 0 4.42533L0 1.47929C0 1.11339 0.300966 0.814026 0.668863 0.814026L10.9723 0.814026Z" fill="#F5F5F5"/>
</svg>
