<svg width="48" height="48" viewBox="0 0 48 48" fill="none" xmlns="http://www.w3.org/2000/svg">
<g clip-path="url(#clip0_129_176)">
<path d="M45.7501 12.75H42.7501C42.5512 12.75 42.3605 12.829 42.2198 12.9697C42.0792 13.1103 42.0001 13.3011 42.0001 13.5C42.0001 13.6989 42.0792 13.8897 42.2198 14.0303C42.3605 14.171 42.5512 14.25 42.7501 14.25H44.0973L40.211 18.6915L38.2154 18.3589C38.1276 17.8627 37.8757 17.4104 37.5001 17.0745V0.75C37.5001 0.551088 37.4211 0.360322 37.2805 0.21967C37.1398 0.0790176 36.9491 0 36.7501 0L30.7501 0C30.5512 0 30.3605 0.0790176 30.2198 0.21967C30.0792 0.360322 30.0001 0.551088 30.0001 0.75V18.3797C29.5068 18.2524 29.0057 18.1569 28.5001 18.0938V4.5C28.5001 4.30109 28.4211 4.11032 28.2805 3.96967C28.1398 3.82902 27.9491 3.75 27.7501 3.75H21.7501C21.5512 3.75 21.3605 3.82902 21.2198 3.96967C21.0792 4.11032 21.0001 4.30109 21.0001 4.5V19.6109C20.4749 19.9156 19.9735 20.2596 19.5001 20.6399V10.5C19.5001 10.3011 19.4211 10.1103 19.2805 9.96967C19.1398 9.82902 18.9491 9.75 18.7501 9.75H12.7501C12.5512 9.75 12.3605 9.82902 12.2198 9.96967C12.0792 10.1103 12.0001 10.3011 12.0001 10.5V28.5C11.4463 28.4996 10.9119 28.7044 10.5001 29.0748V15.75C10.5001 15.5511 10.4211 15.3603 10.2805 15.2197C10.1398 15.079 9.94906 15 9.75014 15H3.75014C3.55123 15 3.36047 15.079 3.21982 15.2197C3.07916 15.3603 3.00015 15.5511 3.00014 15.75V33.0641L1.65811 34.7891C1.59687 34.8668 1.5516 34.9558 1.5249 35.0511C1.49821 35.1463 1.49061 35.2459 1.50256 35.3441C1.51451 35.4423 1.54576 35.5371 1.59452 35.6232C1.64327 35.7092 1.70857 35.7848 1.78665 35.8455C1.86473 35.9063 1.95406 35.9509 2.04947 35.977C2.14489 36.003 2.24452 36.01 2.34263 35.9974C2.44074 35.9848 2.53538 35.9529 2.62111 35.9036C2.70685 35.8542 2.78198 35.7884 2.84218 35.7099L7.71465 29.4454L9.76777 30.4719C9.72562 30.8084 9.76008 31.1501 9.86856 31.4714C9.97705 31.7927 10.1568 32.0853 10.3942 32.3274C10.6317 32.5694 10.9209 32.7547 11.2401 32.8693C11.5592 32.9838 11.9002 33.0248 12.2374 32.9891C12.5746 32.9533 12.8994 32.8418 13.1875 32.6629C13.4755 32.484 13.7194 32.2423 13.9009 31.9558C14.0824 31.6694 14.1968 31.3456 14.2356 31.0087C14.2743 30.6718 14.2364 30.3305 14.1247 30.0103L15.0214 29.2929C15.0077 29.5273 15 29.7622 15 29.9995C14.9989 32.1806 15.5925 34.3206 16.717 36.1894C17.8414 38.0582 19.4541 39.5851 21.3816 40.6057C23.3091 41.6263 25.4784 42.1021 27.6561 41.9817C29.8338 41.8614 31.9375 41.1495 33.7408 39.9228L41.1591 47.341C41.3678 47.5509 41.6159 47.7175 41.8892 47.8313C42.1624 47.9451 42.4554 48.0039 42.7514 48.0043C43.0474 48.0047 43.3405 47.9467 43.6141 47.8336C43.8876 47.7205 44.1361 47.5546 44.3454 47.3453C44.5547 47.136 44.7206 46.8874 44.8337 46.6139C44.9468 46.3404 45.0048 46.0472 45.0044 45.7512C45.004 45.4552 44.9452 45.1622 44.8313 44.889C44.7175 44.6158 44.5509 44.3677 44.341 44.159L36.9229 36.7406C38.5755 34.3132 39.2789 31.3633 38.8997 28.4514C38.5204 25.5394 37.0849 22.8681 34.8658 20.9449L35.0306 20.7802C35.548 21.0277 36.1406 21.068 36.6868 20.893C37.2331 20.7179 37.6917 20.3406 37.9689 19.8384L40.3772 20.2399C40.4179 20.2466 40.459 20.25 40.5001 20.25C40.6071 20.25 40.7127 20.2272 40.8101 20.183C40.9074 20.1388 40.9942 20.0743 41.0646 19.9939L45.0001 15.496V16.5C45.0001 16.6989 45.0792 16.8897 45.2198 17.0303C45.3605 17.171 45.5512 17.25 45.7501 17.25C45.9491 17.25 46.1398 17.171 46.2805 17.0303C46.4211 16.8897 46.5001 16.6989 46.5001 16.5V13.5C46.5001 13.3011 46.4211 13.1103 46.2805 12.9697C46.1398 12.829 45.9491 12.75 45.7501 12.75ZM22.5001 5.25H27.0001V18C25.4576 17.9986 23.9294 18.2962 22.5001 18.8764V5.25ZM6.90811 28.0396L4.50014 31.1355V16.5H9.00014V28.4115L7.83558 27.8292C7.6805 27.7517 7.50334 27.7302 7.33424 27.7686C7.16514 27.807 7.01456 27.9027 6.90811 28.0396ZM12.0001 31.5C11.8518 31.5 11.7068 31.456 11.5835 31.3736C11.4601 31.2912 11.364 31.1741 11.3072 31.037C11.2505 30.9 11.2356 30.7492 11.2646 30.6037C11.2935 30.4582 11.3649 30.3246 11.4698 30.2197C11.5747 30.1148 11.7083 30.0434 11.8538 30.0144C11.9993 29.9855 12.1501 30.0003 12.2872 30.0571C12.4242 30.1139 12.5413 30.21 12.6237 30.3333C12.7062 30.4567 12.7501 30.6017 12.7501 30.75C12.7499 30.9488 12.6708 31.1395 12.5302 31.2801C12.3896 31.4207 12.199 31.4998 12.0001 31.5ZM13.5001 28.5896V11.25H18.0001V22.0721C16.7267 23.5135 15.8189 25.2403 15.3536 27.1065L13.5001 28.5896ZM43.2805 45.2197C43.3514 45.2891 43.4079 45.3719 43.4466 45.4632C43.4853 45.5545 43.5055 45.6526 43.5061 45.7518C43.5066 45.851 43.4875 45.9493 43.4498 46.0411C43.4121 46.1328 43.3565 46.2162 43.2864 46.2863C43.2162 46.3564 43.1328 46.412 43.0411 46.4497C42.9493 46.4874 42.851 46.5065 42.7518 46.5059C42.6526 46.5054 42.5545 46.4851 42.4632 46.4464C42.3719 46.4076 42.2892 46.3512 42.2198 46.2803L34.9341 38.9946C35.3092 38.6633 35.6635 38.3091 35.9947 37.934L43.2805 45.2197ZM37.5001 30C37.5001 32.0767 36.8843 34.1068 35.7306 35.8335C34.5768 37.5602 32.9369 38.906 31.0183 39.7007C29.0997 40.4955 26.9885 40.7034 24.9517 40.2982C22.9149 39.8931 21.044 38.8931 19.5755 37.4246C18.1071 35.9562 17.107 34.0853 16.7019 32.0485C16.2968 30.0116 16.5047 27.9004 17.2994 25.9818C18.0941 24.0632 19.4399 22.4233 21.1667 21.2696C22.8934 20.1158 24.9234 19.5 27.0001 19.5C29.784 19.5032 32.4528 20.6104 34.4213 22.5789C36.3897 24.5473 37.497 27.2162 37.5001 30ZM31.5001 18.8764V1.5H36.0001V16.5C35.6201 16.5 35.2463 16.5964 34.9135 16.7799C34.5808 16.9635 34.2999 17.2284 34.0972 17.5499C33.8945 17.8713 33.7765 18.2389 33.7543 18.6183C33.732 18.9977 33.8062 19.3765 33.97 19.7195L33.6641 20.0254C32.9839 19.5695 32.2588 19.1845 31.5001 18.8764ZM36.0001 19.5C35.8518 19.5 35.7068 19.456 35.5835 19.3736C35.4601 19.2912 35.364 19.1741 35.3072 19.037C35.2505 18.9 35.2356 18.7492 35.2646 18.6037C35.2935 18.4582 35.3649 18.3246 35.4698 18.2197C35.5747 18.1148 35.7083 18.0434 35.8538 18.0144C35.9993 17.9855 36.1501 18.0003 36.2872 18.0571C36.4242 18.1139 36.5413 18.21 36.6237 18.3333C36.7062 18.4567 36.7501 18.6017 36.7501 18.75C36.7499 18.9488 36.6708 19.1395 36.5302 19.2801C36.3896 19.4207 36.199 19.4998 36.0001 19.5ZM27.0001 21C25.2201 21 23.4801 21.5278 22 22.5168C20.52 23.5057 19.3664 24.9113 18.6852 26.5558C18.004 28.2004 17.8258 30.01 18.1731 31.7558C18.5203 33.5016 19.3775 35.1053 20.6362 36.364C21.8949 37.6226 23.4985 38.4798 25.2443 38.8271C26.9902 39.1743 28.7998 38.9961 30.4443 38.3149C32.0888 37.6337 33.4944 36.4802 34.4834 35.0001C35.4723 33.5201 36.0001 31.78 36.0001 30C35.9975 27.6139 35.0484 25.3262 33.3611 23.639C31.6739 21.9518 29.3863 21.0027 27.0001 21ZM27.0001 37.5C25.5168 37.5 24.0667 37.0601 22.8334 36.236C21.6 35.4119 20.6387 34.2406 20.071 32.8701C19.5034 31.4997 19.3549 29.9917 19.6443 28.5368C19.9336 27.082 20.6479 25.7456 21.6968 24.6967C22.7457 23.6478 24.0821 22.9335 25.537 22.6441C26.9918 22.3547 28.4998 22.5032 29.8703 23.0709C31.2407 23.6386 32.4121 24.5999 33.2362 25.8332C34.0603 27.0666 34.5001 28.5166 34.5001 30C34.4979 31.9884 33.707 33.8948 32.301 35.3008C30.8949 36.7068 28.9886 37.4977 27.0001 37.5ZM27.7501 35.25C27.7501 35.4489 27.6711 35.6397 27.5305 35.7803C27.3898 35.921 27.1991 36 27.0001 36C25.4094 35.9982 23.8843 35.3655 22.7595 34.2407C21.6346 33.1158 21.0019 31.5907 21.0001 30C21.0001 29.8011 21.0792 29.6103 21.2198 29.4697C21.3605 29.329 21.5512 29.25 21.7501 29.25C21.9491 29.25 22.1398 29.329 22.2805 29.4697C22.4211 29.6103 22.5001 29.8011 22.5001 30C22.5015 31.1931 22.976 32.3369 23.8196 33.1805C24.6633 34.0241 25.8071 34.4987 27.0001 34.5C27.1991 34.5 27.3898 34.579 27.5305 34.7197C27.6711 34.8603 27.7501 35.0511 27.7501 35.25Z" fill="url(#paint0_linear_129_176)"/>
</g>
<defs>
<linearGradient id="paint0_linear_129_176" x1="23.9986" y1="0" x2="23.9986" y2="48.0043" gradientUnits="userSpaceOnUse">
<stop stop-color="#FA6635"/>
<stop offset="0.41" stop-color="#EA5C31"/>
<stop offset="1" stop-color="#6666CC"/>
</linearGradient>
<clipPath id="clip0_129_176">
<rect width="48" height="48" fill="white"/>
</clipPath>
</defs>
</svg>
