<svg width="48" height="48" viewBox="0 0 48 48" fill="none" xmlns="http://www.w3.org/2000/svg">
<path d="M29.25 17.25V14.3719L30.041 11.999C30.4842 11.9909 30.9151 11.8521 31.2798 11.5999C31.6444 11.3478 31.9264 10.9936 32.0904 10.5818C32.2544 10.1699 32.293 9.71881 32.2016 9.28506C32.1101 8.85131 31.8925 8.45424 31.5762 8.1437C31.2599 7.83316 30.8588 7.62298 30.4235 7.53955C29.9881 7.45612 29.5378 7.50315 29.1291 7.67474C28.7203 7.84634 28.3714 8.13484 28.126 8.50405C27.8807 8.87326 27.7499 9.30671 27.75 9.75C27.75 9.78066 27.7511 9.81103 27.7523 9.84131L26.5644 10.3164L25.7344 8.93222C26.0064 8.60321 26.1793 8.20359 26.2327 7.78003C26.2861 7.35647 26.2179 6.92645 26.0361 6.54018C25.8543 6.15392 25.5663 5.82735 25.2059 5.59862C24.8454 5.36989 24.4273 5.24843 24.0004 5.24843C23.5735 5.24843 23.1553 5.36989 22.7949 5.59862C22.4344 5.82735 22.1464 6.15392 21.9646 6.54018C21.7828 6.92645 21.7146 7.35647 21.7681 7.78003C21.8215 8.20359 21.9943 8.60321 22.2664 8.93222L21.4359 10.3164L20.248 9.84131C20.2493 9.81103 20.2504 9.78066 20.2504 9.75C20.2505 9.30671 20.1197 8.87326 19.8743 8.50405C19.629 8.13484 19.2801 7.84634 18.8713 7.67474C18.4626 7.50315 18.0123 7.45612 17.5769 7.53955C17.1415 7.62298 16.7405 7.83316 16.4242 8.1437C16.1078 8.45424 15.8903 8.85131 15.7988 9.28506C15.7073 9.71881 15.746 10.1699 15.91 10.5818C16.074 10.9936 16.356 11.3478 16.7206 11.5999C17.0852 11.8521 17.5162 11.9909 17.9594 11.999L18.75 14.3719V17.25C18.75 17.4489 18.829 17.6397 18.9697 17.7803C19.1103 17.921 19.3011 18 19.5 18H28.5C28.6989 18 28.8897 17.921 29.0303 17.7803C29.171 17.6397 29.25 17.4489 29.25 17.25ZM30 9C30.1483 9 30.2933 9.04399 30.4167 9.1264C30.54 9.20881 30.6361 9.32594 30.6929 9.46299C30.7497 9.60003 30.7645 9.75083 30.7356 9.89632C30.7066 10.0418 30.6352 10.1754 30.5303 10.2803C30.4254 10.3852 30.2918 10.4566 30.1463 10.4856C30.0008 10.5145 29.85 10.4997 29.713 10.4429C29.5759 10.3861 29.4588 10.29 29.3764 10.1667C29.294 10.0433 29.25 9.89834 29.25 9.75C29.2502 9.55116 29.3293 9.36052 29.4699 9.21992C29.6105 9.07931 29.8012 9.00022 30 9ZM24 6.75C24.1483 6.75 24.2933 6.79399 24.4167 6.8764C24.54 6.95881 24.6361 7.07594 24.6929 7.21299C24.7497 7.35003 24.7645 7.50083 24.7356 7.64632C24.7066 7.7918 24.6352 7.92544 24.5303 8.03033C24.4254 8.13522 24.2918 8.20665 24.1463 8.23559C24.0008 8.26453 23.85 8.24968 23.713 8.19291C23.5759 8.13614 23.4588 8.04001 23.3764 7.91668C23.294 7.79334 23.25 7.64834 23.25 7.5C23.2502 7.30116 23.3293 7.11052 23.4699 6.96992C23.6105 6.82931 23.8012 6.75022 24 6.75ZM21.4715 11.9464C21.6369 12.0126 21.8206 12.0177 21.9894 11.9608C22.1583 11.9039 22.3014 11.7887 22.3931 11.6359L23.5517 9.70463C23.8476 9.76463 24.1525 9.76463 24.4483 9.70463L25.6069 11.6359C25.6986 11.7887 25.8417 11.9039 26.0106 11.9608C26.1794 12.0177 26.3631 12.0126 26.5285 11.9464L28.3105 11.2339C28.4038 11.34 28.5068 11.4371 28.6181 11.524L27.9593 13.5H20.0407L19.3819 11.5238C19.4932 11.4368 19.5962 11.3397 19.6895 11.2336L21.4715 11.9464ZM17.25 9.75C17.25 9.60166 17.294 9.45666 17.3764 9.33332C17.4588 9.20999 17.5759 9.11386 17.713 9.05709C17.85 9.00032 18.0008 8.98547 18.1463 9.01441C18.2918 9.04335 18.4254 9.11478 18.5303 9.21967C18.6352 9.32456 18.7066 9.4582 18.7356 9.60368C18.7645 9.74917 18.7497 9.89997 18.6929 10.037C18.6361 10.1741 18.54 10.2912 18.4167 10.3736C18.2933 10.456 18.1483 10.5 18 10.5C17.8012 10.4998 17.6105 10.4207 17.4699 10.2801C17.3293 10.1395 17.2502 9.94884 17.25 9.75ZM27.75 16.5H20.25V15H27.75V16.5ZM44.2 19.5C43.617 19.5015 43.0561 19.7237 42.6303 20.1221C42.2045 20.5204 41.9454 21.0652 41.9051 21.6469L41.5271 27.3179C41.0089 27.1199 40.4446 27.0761 39.902 27.1918C39.3595 27.3074 38.8621 27.5776 38.4697 27.9697L32.6893 33.75H32.25V30C32.25 29.8011 32.171 29.6103 32.0303 29.4697C31.8897 29.329 31.6989 29.25 31.5 29.25H27.75V24.8565C29.2668 24.3163 30.6507 23.4584 31.8093 22.3402C32.9678 21.222 33.8742 19.8693 34.4678 18.3726L39.4881 14.0694C39.5702 13.999 39.6362 13.9117 39.6814 13.8134C39.7266 13.7151 39.75 13.6082 39.75 13.5V9C39.7483 7.73808 39.2928 6.51887 38.4666 5.565C37.6405 4.61113 36.4988 3.98625 35.25 3.80447V2.25C35.25 2.05109 35.171 1.86032 35.0303 1.71967C34.8897 1.57902 34.6989 1.5 34.5 1.5H13.5C13.3011 1.5 13.1103 1.57902 12.9697 1.71967C12.829 1.86032 12.75 2.05109 12.75 2.25V3.80447C11.5012 3.98625 10.3595 4.61113 9.53336 5.565C8.70718 6.51887 8.25167 7.73808 8.25 9V13.5C8.25 13.6082 8.27342 13.7151 8.31863 13.8134C8.36384 13.9117 8.42979 13.999 8.51194 14.0694L13.5322 18.3726C14.1258 19.8693 15.0322 21.222 16.1907 22.3402C17.3493 23.4584 18.7332 24.3163 20.25 24.8565V29.25H16.5C16.3011 29.25 16.1103 29.329 15.9697 29.4697C15.829 29.6103 15.75 29.8011 15.75 30V33.75H15.3107L9.53034 27.9697C9.13773 27.5779 8.6402 27.3081 8.09772 27.1928C7.55525 27.0775 6.99099 27.1215 6.47297 27.3196L6.09488 21.6469C6.0553 21.0514 5.78578 20.4945 5.34326 20.0941C4.90074 19.6936 4.31988 19.4808 3.72338 19.5007C3.12688 19.5206 2.56147 19.7715 2.14659 20.2006C1.73171 20.6296 1.49985 21.2031 1.5 21.8V31.5C1.49999 31.6164 1.52711 31.7313 1.57922 31.8354L5.25 39.1771V42C5.05109 42 4.86032 42.079 4.71967 42.2197C4.57902 42.3603 4.5 42.5511 4.5 42.75V45.75C4.5 45.9489 4.57902 46.1397 4.71967 46.2803C4.86032 46.421 5.05109 46.5 5.25 46.5H15.75C15.9489 46.5 16.1397 46.421 16.2803 46.2803C16.421 46.1397 16.5 45.9489 16.5 45.75V42.75C16.5 42.5511 16.421 42.3603 16.2803 42.2197C16.1397 42.079 15.9489 42 15.75 42V39.75H32.25V42C32.0511 42 31.8603 42.079 31.7197 42.2197C31.579 42.3603 31.5 42.5511 31.5 42.75V45.75C31.5 45.9489 31.579 46.1397 31.7197 46.2803C31.8603 46.421 32.0511 46.5 32.25 46.5H42.75C42.9489 46.5 43.1397 46.421 43.2803 46.2803C43.421 46.1397 43.5 45.9489 43.5 45.75V42.75C43.5 42.5511 43.421 42.3603 43.2803 42.2197C43.1397 42.079 42.9489 42 42.75 42V39.1771L46.4208 31.8354C46.4729 31.7313 46.5 31.6164 46.5 31.5V21.8C46.4993 21.1902 46.2568 20.6056 45.8256 20.1744C45.3944 19.7432 44.8098 19.5007 44.2 19.5ZM32.25 38.25H15.75V35.25H32.25V38.25ZM38.25 9V13.155L35.1398 15.821C35.213 15.3005 35.2498 14.7756 35.25 14.25V5.32547C36.0964 5.49948 36.8569 5.95996 37.4034 6.6293C37.9498 7.29864 38.2489 8.13591 38.25 9ZM9.75 13.155V9C9.75115 8.13591 10.0502 7.29864 10.5966 6.6293C11.1431 5.95996 11.9036 5.49948 12.75 5.32547V14.25C12.7502 14.7756 12.787 15.3005 12.8602 15.821L9.75 13.155ZM14.25 14.25V3H33.75V14.25C33.75 16.8359 32.7228 19.3158 30.8943 21.1443C29.0658 22.9728 26.5859 24 24 24C21.4141 24 18.9342 22.9728 17.1057 21.1443C15.2772 19.3158 14.25 16.8359 14.25 14.25ZM21.75 25.2738C23.2348 25.5754 24.7652 25.5754 26.25 25.2738V29.25H21.75V25.2738ZM17.25 30.75H30.75V33.75H17.25V30.75ZM15 45H6V43.5H15V45ZM6.75 42V39C6.75001 38.8836 6.72289 38.7687 6.67078 38.6646L3 31.3229V21.8C3.00003 21.5924 3.08071 21.393 3.225 21.2439C3.36929 21.0947 3.56591 21.0075 3.77333 21.0005C3.98075 20.9936 4.18273 21.0676 4.33664 21.2068C4.49054 21.3461 4.58431 21.5396 4.59816 21.7467L5.04862 28.5038C4.71331 29.0538 4.57252 29.7004 4.64888 30.34C4.72523 30.9795 5.0143 31.5748 5.46966 32.0303L9.21966 35.7803C9.2893 35.85 9.37198 35.9052 9.46298 35.9429C9.55398 35.9806 9.65151 36 9.75 36C9.84849 36 9.94602 35.9806 10.037 35.9429C10.128 35.9052 10.2107 35.85 10.2803 35.7803C10.35 35.7107 10.4052 35.628 10.4429 35.537C10.4806 35.446 10.5 35.3485 10.5 35.25C10.5 35.1515 10.4806 35.054 10.4429 34.963C10.4052 34.872 10.35 34.7893 10.2803 34.7197L6.53034 30.9697C6.40301 30.8423 6.302 30.6911 6.23308 30.5248C6.16417 30.3584 6.1287 30.1801 6.1287 30C6.1287 29.8199 6.16417 29.6416 6.23308 29.4752C6.302 29.3089 6.40301 29.1577 6.53034 29.0303C6.65768 28.903 6.80885 28.802 6.97523 28.7331C7.1416 28.6642 7.31992 28.6287 7.5 28.6287C7.68008 28.6287 7.8584 28.6642 8.02477 28.7331C8.19115 28.802 8.34232 28.903 8.46966 29.0303L14.25 34.8106V42H6.75ZM42 45H33V43.5H42V45ZM45 31.3229L41.3292 38.6646C41.2771 38.7687 41.25 38.8836 41.25 39V42H33.75V34.8106L39.5303 29.0303C39.7875 28.7732 40.1363 28.6287 40.5 28.6287C40.8637 28.6287 41.2125 28.7732 41.4697 29.0303C41.7268 29.2875 41.8713 29.6363 41.8713 30C41.8713 30.3637 41.7268 30.7125 41.4697 30.9697L37.7197 34.7197C37.65 34.7893 37.5948 34.872 37.5571 34.963C37.5194 35.054 37.5 35.1515 37.5 35.25C37.5 35.3485 37.5194 35.446 37.5571 35.537C37.5948 35.628 37.65 35.7107 37.7197 35.7803C37.7893 35.85 37.872 35.9052 37.963 35.9429C38.054 35.9806 38.1515 36 38.25 36C38.3485 36 38.446 35.9806 38.537 35.9429C38.628 35.9052 38.7107 35.85 38.7803 35.7803L42.5303 32.0303C42.9857 31.5748 43.2748 30.9795 43.3511 30.34C43.4275 29.7004 43.2867 29.0538 42.9514 28.5038L43.4014 21.7467C43.4152 21.5396 43.509 21.3461 43.6629 21.2068C43.8168 21.0676 44.0188 20.9936 44.2262 21.0005C44.4336 21.0075 44.6302 21.0947 44.7745 21.2439C44.9188 21.393 44.9995 21.5924 44.9995 21.8L45 31.3229Z" fill="url(#paint0_linear_129_182)"/>
<defs>
<linearGradient id="paint0_linear_129_182" x1="24" y1="1.5" x2="24" y2="46.5" gradientUnits="userSpaceOnUse">
<stop stop-color="#FA6635"/>
<stop offset="0.41" stop-color="#EA5C31"/>
<stop offset="1" stop-color="#6666CC"/>
</linearGradient>
</defs>
</svg>
