<svg width="48" height="48" viewBox="0 0 48 48" fill="none" xmlns="http://www.w3.org/2000/svg">
<path d="M13.5 21H19.5C19.6989 21 19.8897 20.921 20.0303 20.7803C20.171 20.6397 20.25 20.4489 20.25 20.25V14.5607L21.5303 13.2803C21.671 13.1397 21.75 12.9489 21.75 12.75C21.75 12.5511 21.671 12.3603 21.5303 12.2197C21.3897 12.079 21.1989 12 21 12C20.8011 12 20.6103 12.079 20.4697 12.2197L19.1893 13.5H13.5C13.3011 13.5 13.1103 13.579 12.9697 13.7197C12.829 13.8603 12.75 14.0511 12.75 14.25V20.25C12.75 20.4489 12.829 20.6397 12.9697 20.7803C13.1103 20.921 13.3011 21 13.5 21ZM18.75 19.5H14.25V16.0607L15.9697 17.7803C16.0393 17.85 16.122 17.9052 16.213 17.9429C16.304 17.9806 16.4015 18 16.5 18C16.5985 18 16.696 17.9806 16.787 17.9429C16.878 17.9052 16.9607 17.85 17.0303 17.7803L18.75 16.0607V19.5ZM16.5 16.1894L15.3107 15H17.6893L16.5 16.1894ZM21.75 18.75C21.75 18.5511 21.829 18.3603 21.9697 18.2197C22.1103 18.079 22.3011 18 22.5 18H35.25C35.4489 18 35.6397 18.079 35.7803 18.2197C35.921 18.3603 36 18.5511 36 18.75C36 18.9489 35.921 19.1397 35.7803 19.2803C35.6397 19.421 35.4489 19.5 35.25 19.5H22.5C22.3011 19.5 22.1103 19.421 21.9697 19.2803C21.829 19.1397 21.75 18.9489 21.75 18.75ZM36 23.25C36 23.4489 35.921 23.6397 35.7803 23.7803C35.6397 23.921 35.4489 24 35.25 24H12.75C12.5511 24 12.3603 23.921 12.2197 23.7803C12.079 23.6397 12 23.4489 12 23.25C12 23.0511 12.079 22.8603 12.2197 22.7197C12.3603 22.579 12.5511 22.5 12.75 22.5H35.25C35.4489 22.5 35.6397 22.579 35.7803 22.7197C35.921 22.8603 36 23.0511 36 23.25ZM36 26.25C36 26.4489 35.921 26.6397 35.7803 26.7803C35.6397 26.921 35.4489 27 35.25 27H12.75C12.5511 27 12.3603 26.921 12.2197 26.7803C12.079 26.6397 12 26.4489 12 26.25C12 26.0511 12.079 25.8603 12.2197 25.7197C12.3603 25.579 12.5511 25.5 12.75 25.5H35.25C35.4489 25.5 35.6397 25.579 35.7803 25.7197C35.921 25.8603 36 26.0511 36 26.25ZM36 29.25C36 29.4489 35.921 29.6397 35.7803 29.7803C35.6397 29.921 35.4489 30 35.25 30H12.75C12.5511 30 12.3603 29.921 12.2197 29.7803C12.079 29.6397 12 29.4489 12 29.25C12 29.0511 12.079 28.8603 12.2197 28.7197C12.3603 28.579 12.5511 28.5 12.75 28.5H35.25C35.4489 28.5 35.6397 28.579 35.7803 28.7197C35.921 28.8603 36 29.0511 36 29.25ZM36 33.75C36 33.9489 35.921 34.1397 35.7803 34.2803C35.6397 34.421 35.4489 34.5 35.25 34.5H32.25C32.1336 34.5 32.0187 34.4729 31.9146 34.4208L30.8981 33.9126L30.5303 34.2803C30.4607 34.35 30.378 34.4052 30.287 34.4429C30.196 34.4806 30.0985 34.5 30 34.5C29.9015 34.5 29.804 34.4806 29.713 34.4429C29.622 34.4052 29.5393 34.35 29.4697 34.2803L28.5 33.3106L27.5303 34.2803C27.3897 34.421 27.1989 34.5 27 34.5C26.8011 34.5 26.6103 34.421 26.4697 34.2803C26.329 34.1397 26.25 33.9489 26.25 33.75C26.25 33.5511 26.329 33.3603 26.4697 33.2197L27.9697 31.7197C28.0393 31.65 28.122 31.5948 28.213 31.5571C28.304 31.5194 28.4015 31.5 28.5 31.5C28.5985 31.5 28.696 31.5194 28.787 31.5571C28.878 31.5948 28.9607 31.65 29.0303 31.7197L30 32.6894L30.2197 32.4697C30.3309 32.3583 30.4745 32.2848 30.6298 32.2596C30.7852 32.2343 30.9446 32.2586 31.0854 32.329L32.4271 33H35.25C35.4489 33 35.6397 33.079 35.7803 33.2197C35.921 33.3603 36 33.5511 36 33.75ZM46.5 1.5H42C41.8011 1.5 41.6103 1.57902 41.4697 1.71967C41.329 1.86032 41.25 2.05109 41.25 2.25V3.09947L36.784 3.73753L24.1718 0.769969C24.0251 0.735422 23.8714 0.745876 23.7308 0.799969L6.24638 7.52475C5.55916 7.78894 4.99917 8.3062 4.68138 8.97033C4.36359 9.63446 4.31213 10.3951 4.53756 11.0959C4.76299 11.7968 5.2482 12.3848 5.89357 12.7392C6.53893 13.0935 7.29547 13.1873 8.00784 13.0013L8.25 12.9382V32.2489L6.75 32.2478V31.5C6.75 31.3011 6.67098 31.1103 6.53033 30.9697C6.38968 30.829 6.19891 30.75 6 30.75H1.5C1.30109 30.75 1.11032 30.829 0.96967 30.9697C0.829018 31.1103 0.75 31.3011 0.75 31.5V45C0.75 45.1989 0.829018 45.3897 0.96967 45.5303C1.11032 45.671 1.30109 45.75 1.5 45.75H6C6.19891 45.75 6.38968 45.671 6.53033 45.5303C6.67098 45.3897 6.75 45.1989 6.75 45V44.1504L11.216 43.5125L23.8282 46.48C23.9749 46.5146 24.1286 46.5041 24.2693 46.45L41.7536 39.7253C42.4408 39.461 43.0007 38.9438 43.3185 38.2797C43.6362 37.6156 43.6877 36.855 43.4623 36.1542C43.2369 35.4533 42.7517 34.8654 42.1064 34.511C41.4611 34.1566 40.7046 34.0628 39.9923 34.2487L39.75 34.3118V15.0011L41.25 15.0022V15.75C41.25 15.9489 41.329 16.1397 41.4697 16.2803C41.6103 16.421 41.8011 16.5 42 16.5H46.5C46.6989 16.5 46.8897 16.421 47.0303 16.2803C47.171 16.1397 47.25 15.9489 47.25 15.75V2.25C47.25 2.05109 47.171 1.86032 47.0303 1.71967C46.8897 1.57902 46.6989 1.5 46.5 1.5ZM5.25 44.25H2.25V32.25H5.25V44.25ZM40.3709 35.7C40.7121 35.6117 41.0742 35.6572 41.3829 35.8272C41.6917 35.9972 41.9237 36.2788 42.0316 36.6143C42.1394 36.9499 42.1149 37.3139 41.963 37.632C41.8112 37.95 41.5434 38.198 41.2147 38.325L23.9459 44.9666L11.4209 42.0197C11.3299 41.9982 11.2356 41.994 11.143 42.0072L6.75 42.6353V33.7477L9.74944 33.7499C9.76209 33.7488 9.77625 33.7499 9.78966 33.7489L22.6443 33.0686C22.8795 33.0566 23.1107 33.1326 23.2929 33.2818C23.4752 33.431 23.5953 33.6427 23.6299 33.8756C23.6645 34.1086 23.6111 34.3461 23.4801 34.5418C23.3491 34.7375 23.1499 34.8774 22.9214 34.9342L15.5681 36.7724C15.3764 36.8218 15.212 36.945 15.1107 37.1151C15.0095 37.2852 14.9796 37.4885 15.0276 37.6806C15.0756 37.8727 15.1976 38.0379 15.367 38.1404C15.5364 38.2429 15.7395 38.2742 15.9319 38.2276L18.9274 37.4787L24.4715 39.6964C24.6203 39.7559 24.7843 39.7662 24.9394 39.7257L40.3709 35.7ZM24.7994 38.2125L21.4125 36.8574L23.2849 36.3893C23.8749 36.2419 24.3889 35.8802 24.7268 35.3745C25.0647 34.8689 25.2022 34.2555 25.1126 33.654C25.0229 33.0525 24.7126 32.5059 24.242 32.1208C23.7714 31.7356 23.1742 31.5394 22.5668 31.5705L9.75 32.249V12.5468L23.2006 9.03797L26.5875 10.3926L24.715 10.8608C24.1347 11.0049 23.6273 11.3566 23.2885 11.8494C22.9498 12.3421 22.8033 12.9419 22.8765 13.5353C22.9498 14.1288 23.2379 14.6749 23.6863 15.0704C24.1347 15.466 24.7125 15.6836 25.3104 15.6823C25.3511 15.6823 25.3921 15.6814 25.4331 15.6793L38.25 15.001V34.7032L24.7994 38.2125ZM38.2103 13.5015L25.3557 14.1818C25.1205 14.1938 24.8893 14.1178 24.7071 13.9686C24.5248 13.8194 24.4047 13.6077 24.3701 13.3748C24.3355 13.1418 24.3889 12.9043 24.5199 12.7086C24.6509 12.5129 24.8501 12.373 25.0786 12.3161L32.4319 10.4779C32.6236 10.4285 32.788 10.3053 32.8893 10.1352C32.9905 9.96504 33.0204 9.76178 32.9724 9.5697C32.9244 9.37763 32.8024 9.21233 32.633 9.10986C32.4636 9.00739 32.2605 8.97605 32.0681 9.02269L29.0725 9.77156L23.5285 7.55363C23.3797 7.49404 23.2157 7.48375 23.0606 7.52428L7.62909 11.55C7.28775 11.6388 6.92536 11.5936 6.61626 11.4238C6.30716 11.2539 6.07478 10.9722 5.96678 10.6364C5.85878 10.3006 5.88335 9.93626 6.03546 9.61803C6.18756 9.2998 6.45567 9.05184 6.78478 8.925L24.0535 2.28338L36.5785 5.23031C36.6696 5.25173 36.7638 5.25596 36.8564 5.24278L41.25 4.61484V13.5023C41.25 13.5023 38.2238 13.5 38.2103 13.501V13.5015ZM45.75 15H42.75V3H45.75V15Z" fill="url(#paint0_linear_129_179)"/>
<defs>
<linearGradient id="paint0_linear_129_179" x1="24" y1="0.75" x2="24" y2="46.5" gradientUnits="userSpaceOnUse">
<stop stop-color="#FA6635"/>
<stop offset="0.41" stop-color="#EA5C31"/>
<stop offset="1" stop-color="#6666CC"/>
</linearGradient>
</defs>
</svg>
