<svg width="48" height="48" viewBox="0 0 48 48" fill="none" xmlns="http://www.w3.org/2000/svg">
<path d="M45.7498 1.5H41.9998C41.8009 1.5 41.6102 1.57902 41.4695 1.71967C41.3288 1.86032 41.2498 2.05109 41.2498 2.25C41.2498 2.44891 41.3288 2.63968 41.4695 2.78033C41.6102 2.92098 41.8009 3 41.9998 3H43.9391L40.9391 6H38.8708C38.7695 5.71133 38.6104 5.44634 38.4033 5.22125C38.1961 4.99615 37.9452 4.81567 37.6659 4.69083C37.3866 4.566 37.0847 4.49943 36.7788 4.4952C36.4729 4.49098 36.1694 4.54917 35.8867 4.66624C35.6041 4.78331 35.3483 4.95679 35.135 5.17608C34.9217 5.39536 34.7553 5.65585 34.6461 5.94161C34.5368 6.22737 34.487 6.53241 34.4997 6.83808C34.5123 7.14375 34.5872 7.44362 34.7197 7.71937L20.4692 21.9698C20.1846 21.8338 19.8745 21.7592 19.5591 21.7508C19.2438 21.7424 18.9302 21.8005 18.6387 21.9212C18.3473 22.042 18.0845 22.2227 17.8674 22.4516C17.6504 22.6805 17.4839 22.9525 17.3788 23.25H10.3708C10.2695 22.9613 10.1104 22.6963 9.90326 22.4712C9.69607 22.2461 9.44517 22.0657 9.16586 21.9408C8.88656 21.816 8.58474 21.7494 8.27884 21.7452C7.97294 21.741 7.66939 21.7992 7.38675 21.9162C7.1041 22.0333 6.8483 22.2068 6.63498 22.4261C6.42166 22.6454 6.25529 22.9058 6.14606 23.1916C6.03683 23.4774 5.98702 23.7824 5.99967 24.0881C6.01233 24.3937 6.08719 24.6936 6.21968 24.9694L1.71968 29.4694C1.57902 29.61 1.5 29.8008 1.5 29.9997C1.5 30.1986 1.57902 30.3894 1.71968 30.5301C1.86033 30.6707 2.0511 30.7497 2.25002 30.7497C2.44894 30.7497 2.63971 30.6707 2.78036 30.5301L7.28036 26.0301C7.565 26.1661 7.87507 26.2408 8.19044 26.2492C8.5058 26.2575 8.81941 26.1995 9.11087 26.0788C9.40234 25.958 9.66514 25.7774 9.88221 25.5484C10.0993 25.3195 10.2658 25.0475 10.3708 24.75H17.3788C17.4801 25.0387 17.6392 25.3037 17.8464 25.5288C18.0536 25.7539 18.3045 25.9343 18.5838 26.0592C18.8631 26.184 19.1649 26.2506 19.4708 26.2548C19.7767 26.259 20.0803 26.2008 20.3629 26.0838C20.6456 25.9667 20.9014 25.7932 21.1147 25.5739C21.328 25.3546 21.4944 25.0942 21.6036 24.8084C21.7128 24.5226 21.7626 24.2176 21.75 23.9119C21.7373 23.6063 21.6625 23.3064 21.53 23.0306L35.7805 8.78063C36.0651 8.91665 36.3752 8.99126 36.6906 8.99961C37.006 9.00795 37.3196 8.94985 37.6111 8.82907C37.9025 8.70829 38.1653 8.52754 38.3823 8.29856C38.5994 8.06959 38.7658 7.7975 38.8708 7.5H41.2498C41.3483 7.5 41.4459 7.48061 41.5368 7.44292C41.6278 7.40523 41.7105 7.34999 41.7802 7.28034L44.9998 4.06069V6C44.9998 6.19891 45.0788 6.38968 45.2195 6.53033C45.3602 6.67098 45.5509 6.75 45.7498 6.75C45.9487 6.75 46.1395 6.67098 46.2802 6.53033C46.4208 6.38968 46.4998 6.19891 46.4998 6V2.25C46.4998 2.05109 46.4208 1.86032 46.2802 1.71967C46.1395 1.57902 45.9487 1.5 45.7498 1.5ZM8.24983 24.75C8.1015 24.75 7.95649 24.706 7.83315 24.6236C7.70982 24.5412 7.61369 24.4241 7.55692 24.287C7.50016 24.15 7.4853 23.9992 7.51424 23.8537C7.54318 23.7082 7.61461 23.5746 7.7195 23.4697C7.82439 23.3648 7.95803 23.2934 8.10351 23.2644C8.249 23.2355 8.3998 23.2503 8.53684 23.3071C8.67389 23.3639 8.79102 23.46 8.87343 23.5833C8.95585 23.7067 8.99983 23.8517 8.99983 24C8.99961 24.1988 8.92052 24.3895 8.77991 24.5301C8.63931 24.6707 8.44868 24.7498 8.24983 24.75ZM19.4998 24.75C19.3515 24.75 19.2065 24.706 19.0832 24.6236C18.9598 24.5412 18.8637 24.4241 18.8069 24.287C18.7502 24.15 18.7353 23.9992 18.7642 23.8537C18.7932 23.7082 18.8646 23.5746 18.9695 23.4697C19.0744 23.3648 19.208 23.2934 19.3535 23.2644C19.499 23.2355 19.6498 23.2503 19.7868 23.3071C19.9239 23.3639 20.041 23.46 20.1234 23.5833C20.2058 23.7067 20.2498 23.8517 20.2498 24C20.2496 24.1988 20.1705 24.3895 20.0299 24.5301C19.8893 24.6707 19.6987 24.7498 19.4998 24.75ZM36.7498 7.5C36.6015 7.5 36.4565 7.45601 36.3332 7.3736C36.2098 7.29119 36.1137 7.17406 36.0569 7.03701C36.0002 6.89997 35.9853 6.74917 36.0142 6.60368C36.0432 6.4582 36.1146 6.32456 36.2195 6.21967C36.3244 6.11478 36.458 6.04335 36.6035 6.01441C36.749 5.98547 36.8998 6.00032 37.0368 6.05709C37.1739 6.11386 37.291 6.20999 37.3734 6.33332C37.4558 6.45666 37.4998 6.60166 37.4998 6.75C37.4996 6.94884 37.4205 7.13948 37.2799 7.28008C37.1393 7.42069 36.9487 7.49978 36.7498 7.5ZM10.4998 46.5C10.6987 46.5 10.8895 46.421 11.0302 46.2803C11.1708 46.1397 11.2498 45.9489 11.2498 45.75V30.75C11.2498 30.5511 11.1708 30.3603 11.0302 30.2197C10.8895 30.079 10.6987 30 10.4998 30H5.99983C5.80092 30 5.61015 30.079 5.4695 30.2197C5.32885 30.3603 5.24983 30.5511 5.24983 30.75V45.75C5.24983 45.9489 5.32885 46.1397 5.4695 46.2803C5.61015 46.421 5.80092 46.5 5.99983 46.5H10.4998ZM6.74983 31.5H9.74983V45H6.74983V31.5ZM18.7498 46.5C18.9487 46.5 19.1395 46.421 19.2802 46.2803C19.4208 46.1397 19.4998 45.9489 19.4998 45.75V28.5C19.4998 28.3011 19.4208 28.1103 19.2802 27.9697C19.1395 27.829 18.9487 27.75 18.7498 27.75H14.2498C14.0509 27.75 13.8602 27.829 13.7195 27.9697C13.5788 28.1103 13.4998 28.3011 13.4998 28.5V45.75C13.4998 45.9489 13.5788 46.1397 13.7195 46.2803C13.8602 46.421 14.0509 46.5 14.2498 46.5H18.7498ZM14.9998 29.25H17.9998V45H14.9998V29.25ZM26.9998 27H22.4998C22.3009 27 22.1102 27.079 21.9695 27.2197C21.8288 27.3603 21.7498 27.5511 21.7498 27.75V45.75C21.7498 45.9489 21.8288 46.1397 21.9695 46.2803C22.1102 46.421 22.3009 46.5 22.4998 46.5H26.9998C27.1987 46.5 27.3895 46.421 27.5302 46.2803C27.6708 46.1397 27.7498 45.9489 27.7498 45.75V27.75C27.7498 27.5511 27.6708 27.3603 27.5302 27.2197C27.3895 27.079 27.1987 27 26.9998 27ZM26.2498 45H23.2498V28.5H26.2498V45ZM35.9979 45.75V17.25C35.9979 17.1518 35.9785 17.0545 35.9409 16.9637C35.9033 16.873 35.8482 16.7905 35.7788 16.7211C35.7093 16.6516 35.6268 16.5965 35.5361 16.5589C35.4453 16.5213 35.3481 16.502 35.2498 16.502H30.7498C30.6516 16.502 30.5543 16.5213 30.4636 16.5589C30.3728 16.5965 30.2904 16.6516 30.2209 16.7211C30.1514 16.7905 30.0963 16.873 30.0587 16.9637C30.0211 17.0545 30.0018 17.1518 30.0018 17.25V45.75C30.0018 45.9484 30.0806 46.1387 30.2209 46.2789C30.3612 46.4192 30.5514 46.498 30.7498 46.498H35.2498C35.4482 46.498 35.6385 46.4192 35.7788 46.2789C35.9191 46.1387 35.9979 45.9484 35.9979 45.75ZM34.5018 45.002H31.4979V17.998H34.5018V45.002ZM44.2479 45.75V11.25C44.2478 11.0516 44.169 10.8614 44.0287 10.7211C43.8885 10.5808 43.6982 10.502 43.4998 10.502H38.9998C38.8014 10.502 38.6112 10.5808 38.4709 10.7211C38.3306 10.8614 38.2518 11.0516 38.2518 11.25V45.75C38.2518 45.9484 38.3306 46.1386 38.4709 46.2789C38.6112 46.4192 38.8014 46.498 38.9998 46.498H43.4998C43.6982 46.498 43.8885 46.4192 44.0287 46.2789C44.169 46.1386 44.2478 45.9484 44.2479 45.75ZM42.7518 45.002H39.7479V11.998H42.7518V45.002Z" fill="url(#paint0_linear_129_180)"/>
<defs>
<linearGradient id="paint0_linear_129_180" x1="23.9999" y1="1.5" x2="23.9999" y2="46.5" gradientUnits="userSpaceOnUse">
<stop stop-color="#FA6635"/>
<stop offset="0.41" stop-color="#EA5C31"/>
<stop offset="1" stop-color="#6666CC"/>
</linearGradient>
</defs>
</svg>
