<svg width="48" height="48" viewBox="0 0 48 48" fill="none" xmlns="http://www.w3.org/2000/svg">
<path d="M21 11.2499C12.3154 11.2499 5.25 18.3153 5.25 26.9999C5.25 35.6846 12.3154 42.7499 21 42.7499C29.6846 42.7499 36.75 35.6846 36.75 26.9999C36.75 18.3153 29.6846 11.2499 21 11.2499ZM21 41.2499C13.1425 41.2499 6.75 34.8574 6.75 26.9999C6.75 19.1425 13.1425 12.7499 21 12.7499C28.8575 12.7499 35.25 19.1425 35.25 26.9999C35.25 34.8574 28.8575 41.2499 21 41.2499ZM21 14.2499C13.9696 14.2499 8.25 19.9695 8.25 26.9999C8.25 34.0304 13.9696 39.7499 21 39.7499C28.0304 39.7499 33.75 34.0304 33.75 26.9999C33.75 19.9695 28.0303 14.2499 21 14.2499ZM21.75 26.9999C21.75 27.1483 21.706 27.2933 21.6236 27.4166C21.5412 27.54 21.4241 27.6361 21.287 27.6929C21.15 27.7496 20.9992 27.7645 20.8537 27.7355C20.7082 27.7066 20.5746 27.6352 20.4697 27.5303C20.3648 27.4254 20.2934 27.2917 20.2644 27.1463C20.2355 27.0008 20.2503 26.85 20.3071 26.7129C20.3639 26.5759 20.46 26.4588 20.5833 26.3763C20.7067 26.2939 20.8517 26.2499 21 26.2499C21.1988 26.2502 21.3895 26.3293 21.5301 26.4699C21.6707 26.6105 21.7498 26.8011 21.75 26.9999ZM20.25 15.7755V24.8787C20.0749 24.9407 19.9082 25.0243 19.7537 25.1275L12.4743 19.6687C13.4466 18.5356 14.635 17.6076 15.9701 16.9392C17.3052 16.2707 18.7602 15.8751 20.25 15.7755ZM29.4637 34.4029L28.2803 33.2196C28.1397 33.0789 27.9489 32.9999 27.75 32.9999C27.5511 32.9999 27.3603 33.0789 27.2197 33.2196C27.079 33.3603 27 33.551 27 33.7499C27 33.9489 27.079 34.1396 27.2197 34.2803L28.403 35.4636C26.5497 37.0911 24.2111 38.0615 21.75 38.2243V36.7499C21.75 36.551 21.671 36.3603 21.5303 36.2196C21.3897 36.079 21.1989 35.9999 21 35.9999C20.8011 35.9999 20.6103 36.079 20.4697 36.2196C20.329 36.3603 20.25 36.551 20.25 36.7499V38.2243C17.7889 38.0615 15.4503 37.0911 13.597 35.4635L14.7803 34.2803C14.85 34.2106 14.9052 34.128 14.9429 34.037C14.9806 33.946 15 33.8484 15 33.7499C15 33.6515 14.9806 33.5539 14.9429 33.4629C14.9052 33.3719 14.85 33.2892 14.7803 33.2196C14.7107 33.15 14.628 33.0947 14.537 33.057C14.446 33.0193 14.3485 32.9999 14.25 32.9999C14.1515 32.9999 14.054 33.0193 13.963 33.057C13.872 33.0947 13.7893 33.15 13.7197 33.2196L12.5364 34.4029C10.9089 32.5496 9.93842 30.2111 9.77559 27.7499H11.25C11.4489 27.7499 11.6397 27.6709 11.7803 27.5303C11.921 27.3896 12 27.1989 12 26.9999C12 26.801 11.921 26.6103 11.7803 26.4696C11.6397 26.329 11.4489 26.2499 11.25 26.2499H9.77559C9.90178 24.331 10.5209 22.477 11.5732 20.8673L18.8528 26.3271C18.7208 26.7484 18.7156 27.1993 18.8379 27.6236C18.9602 28.0478 19.2047 28.4267 19.5408 28.713C19.8769 28.9994 20.2899 29.1804 20.7282 29.2337C21.1665 29.287 21.6108 29.2102 22.0058 29.0128C22.4008 28.8154 22.7289 28.5061 22.9493 28.1235C23.1698 27.7409 23.2728 27.3019 23.2455 26.8612C23.2182 26.4205 23.0619 25.9976 22.796 25.6451C22.53 25.2926 22.1663 25.0262 21.75 24.8789V15.7758C24.2111 15.9386 26.5497 16.9091 28.403 18.5366L27.2197 19.7199C27.079 19.8605 27 20.0513 27 20.2502C27 20.4491 27.079 20.6399 27.2197 20.7806C27.3603 20.9212 27.5511 21.0002 27.75 21.0002C27.9489 21.0002 28.1397 20.9212 28.2803 20.7806L29.4637 19.5973C31.0911 21.4505 32.0615 23.7889 32.2244 26.2499H30.75C30.5511 26.2499 30.3603 26.329 30.2197 26.4696C30.079 26.6103 30 26.801 30 26.9999C30 27.1989 30.079 27.3896 30.2197 27.5303C30.3603 27.6709 30.5511 27.7499 30.75 27.7499H32.2244C32.0616 30.211 31.0912 32.5496 29.4637 34.4029ZM46.0745 4.57382L45.2562 4.1812L45.6735 3.33004C45.7426 3.18915 45.7657 3.03014 45.7396 2.8754C45.7136 2.72067 45.6396 2.57801 45.5282 2.4675C45.4168 2.35699 45.2736 2.2842 45.1187 2.25939C44.9637 2.23457 44.8049 2.25898 44.6646 2.32917L43.8354 2.74373L43.4208 1.91451C43.3585 1.78995 43.2627 1.6852 43.1443 1.61199C43.0258 1.53878 42.8893 1.5 42.75 1.5C42.6107 1.5 42.4742 1.53878 42.3557 1.61199C42.2373 1.6852 42.1415 1.78995 42.0792 1.91451L41.6646 2.74373L40.8354 2.32917C40.6946 2.25878 40.5353 2.23447 40.3799 2.25969C40.2245 2.2849 40.081 2.35837 39.9697 2.46967C39.8584 2.58097 39.785 2.72448 39.7597 2.87985C39.7345 3.03522 39.7588 3.19459 39.8292 3.33539L40.2438 4.16451L39.4146 4.57917C39.29 4.64147 39.1853 4.73721 39.112 4.85569C39.0388 4.97416 39.0001 5.11068 39.0001 5.24995C39.0001 5.38922 39.0388 5.52574 39.112 5.64421C39.1853 5.76268 39.29 5.85843 39.4146 5.92073L40.2438 6.33539L39.8837 7.05557L37.125 9.81426L33.5303 6.21961C33.4048 6.09409 33.2388 6.01716 33.0619 6.00252C32.885 5.98788 32.7086 6.03646 32.5642 6.13964L28.5375 9.01598C26.1514 8.01265 23.5885 7.49717 21 7.49995C10.2477 7.49995 1.5 16.2477 1.5 26.9999C1.5 37.7522 10.2477 46.4999 21 46.4999C31.7523 46.4999 40.5 37.7522 40.5 26.9999C40.5028 24.4114 39.9873 21.8486 38.984 19.4624L41.8603 15.4359C41.9635 15.2914 42.0121 15.115 41.9975 14.9381C41.9828 14.7611 41.9059 14.5951 41.7803 14.4696L38.1857 10.8749L40.9443 8.11635L41.6592 7.75889L42.0765 8.61023C42.1382 8.73623 42.2341 8.84238 42.3531 8.91663C42.4722 8.99087 42.6097 9.03023 42.75 9.03023C42.8903 9.03023 43.0278 8.99087 43.1469 8.91663C43.2659 8.84238 43.3618 8.73623 43.4235 8.61023L43.8408 7.75889L44.6646 8.17073C44.8054 8.24112 44.9647 8.26543 45.1201 8.24021C45.2755 8.21499 45.419 8.14153 45.5303 8.03023C45.6416 7.91892 45.715 7.77542 45.7403 7.62005C45.7655 7.46467 45.7412 7.3053 45.6708 7.16451L45.2562 6.33539L46.0854 5.92073C46.2109 5.85796 46.3163 5.76126 46.3895 5.64161C46.4628 5.52196 46.501 5.38415 46.4999 5.24386C46.4987 5.10356 46.4583 4.9664 46.3831 4.84795C46.3079 4.72951 46.201 4.63454 46.0745 4.57382ZM21 44.9999C11.0748 44.9999 3 36.9252 3 26.9999C3 17.0747 11.0748 8.99995 21 8.99995C30.9252 8.99995 39 17.0747 39 26.9999C39 36.9252 30.9252 44.9999 21 44.9999ZM38.2483 17.912C36.4069 14.4359 33.564 11.593 30.0878 9.75164L32.9191 7.72954L40.2706 15.081L38.2483 17.912ZM43.9146 5.32917C43.79 5.39146 43.6852 5.4872 43.612 5.60568C43.5388 5.72415 43.5 5.86067 43.5 5.99995C43.3597 5.99998 43.2223 6.03934 43.1033 6.11356C42.9842 6.18779 42.8884 6.2939 42.8267 6.41985L42.75 6.57604L42.6735 6.41985C42.6117 6.29387 42.5159 6.18774 42.3968 6.11351C42.2778 6.03929 42.1403 5.99994 42 5.99995C42 5.86065 41.9612 5.72412 41.8879 5.60564C41.8147 5.48717 41.7099 5.39143 41.5853 5.32917L41.4271 5.24995L41.5854 5.17073C41.71 5.10844 41.8148 5.01269 41.888 4.89422C41.9612 4.77575 42 4.63922 42 4.49995C42.1393 4.49989 42.2758 4.46106 42.3942 4.38781C42.5126 4.31456 42.6083 4.20977 42.6706 4.0852L42.75 3.92704L42.8292 4.08539C42.8916 4.21004 42.9874 4.31486 43.106 4.38809C43.2246 4.46131 43.3612 4.50005 43.5006 4.49995C43.4946 4.64631 43.5317 4.7912 43.6072 4.91672C43.6827 5.04223 43.7933 5.14286 43.9254 5.20617L44.0452 5.26354L43.9146 5.32917Z" fill="url(#paint0_linear_129_181)"/>
<defs>
<linearGradient id="paint0_linear_129_181" x1="24" y1="1.5" x2="24" y2="46.4999" gradientUnits="userSpaceOnUse">
<stop stop-color="#FA6635"/>
<stop offset="0.41" stop-color="#EA5C31"/>
<stop offset="1" stop-color="#6666CC"/>
</linearGradient>
</defs>
</svg>
