<svg width="46" height="42" viewBox="0 0 46 42" fill="none" xmlns="http://www.w3.org/2000/svg">
<path d="M44.75 0H1.25C1.05109 0 0.860322 0.0790178 0.71967 0.21967C0.579018 0.360322 0.5 0.551088 0.5 0.75V32.25C0.5 32.4489 0.579018 32.6397 0.71967 32.7803C0.860322 32.921 1.05109 33 1.25 33H18.2763L20.0187 40.6662C20.0519 40.8122 20.128 40.9449 20.2373 41.0472C20.3465 41.1496 20.4839 41.2169 20.6317 41.2405C20.6708 41.2469 20.7104 41.25 20.75 41.25C20.8795 41.25 21.0068 41.2164 21.1194 41.1526C21.2321 41.0888 21.3263 40.9969 21.3929 40.8859L23.9926 36.5531L29.2197 41.7802C29.2893 41.8498 29.372 41.9051 29.463 41.9427C29.554 41.9804 29.6515 41.9998 29.75 41.9998C29.8485 41.9998 29.946 41.9804 30.037 41.9427C30.128 41.9051 30.2107 41.8498 30.2803 41.7802L34.0303 38.0302C34.1 37.9605 34.1552 37.8778 34.1929 37.7868C34.2306 37.6958 34.25 37.5983 34.25 37.4998C34.25 37.4013 34.2306 37.3038 34.1929 37.2128C34.1552 37.1218 34.1 37.0391 34.0303 36.9695L30.0607 33H44.75C44.9489 33 45.1397 32.921 45.2803 32.7803C45.421 32.6397 45.5 32.4489 45.5 32.25V0.75C45.5 0.551088 45.421 0.360322 45.2803 0.21967C45.1397 0.0790178 44.9489 0 44.75 0ZM44 1.5V6H2V1.5H44ZM21.0675 38.5131L18.0266 25.1328L30.7953 29.389L24.9148 32.3294C24.7873 32.3932 24.6805 32.492 24.6072 32.6143L21.0675 38.5131ZM17.2372 23.2884C17.111 23.2464 16.9759 23.2386 16.8457 23.266C16.7155 23.2934 16.5949 23.3549 16.4963 23.4442C16.3978 23.5336 16.3247 23.6475 16.2847 23.7744C16.2447 23.9013 16.2392 24.0365 16.2687 24.1662L16.5718 25.5H5V13.5H23V25.2094L17.2372 23.2884ZM29.75 40.1894L24.7882 35.2274L25.7807 33.5731L27.6018 32.6626L32.4393 37.5001L29.75 40.1894ZM29.927 31.5L33.0854 29.9208C33.2181 29.8544 33.3281 29.7503 33.4016 29.6214C33.4751 29.4925 33.5087 29.3447 33.4981 29.1968C33.4876 29.0488 33.4335 28.9073 33.3425 28.7901C33.2516 28.6729 33.1279 28.5853 32.9872 28.5384L24.5 25.7093V12.75C24.5 12.5511 24.421 12.3603 24.2803 12.2197C24.1397 12.079 23.9489 12 23.75 12H4.25C4.05109 12 3.86032 12.079 3.71967 12.2197C3.57902 12.3603 3.5 12.5511 3.5 12.75V26.25C3.5 26.4489 3.57902 26.6397 3.71967 26.7803C3.86032 26.921 4.05109 27 4.25 27H16.9127L17.9354 31.5H2V7.5H44V31.5H29.927ZM3.5 3.75C3.5 3.55109 3.57902 3.36032 3.71967 3.21967C3.86032 3.07902 4.05109 3 4.25 3H32C32.1989 3 32.3897 3.07902 32.5303 3.21967C32.671 3.36032 32.75 3.55109 32.75 3.75C32.75 3.94891 32.671 4.13968 32.5303 4.28033C32.3897 4.42098 32.1989 4.5 32 4.5H4.25C4.05109 4.5 3.86032 4.42098 3.71967 4.28033C3.57902 4.13968 3.5 3.94891 3.5 3.75ZM34.25 3.75C34.25 3.60166 34.294 3.45666 34.3764 3.33332C34.4588 3.20999 34.5759 3.11386 34.713 3.05709C34.85 3.00032 35.0008 2.98547 35.1463 3.01441C35.2918 3.04335 35.4254 3.11478 35.5303 3.21967C35.6352 3.32456 35.7066 3.4582 35.7356 3.60368C35.7645 3.74917 35.7497 3.89997 35.6929 4.03701C35.6361 4.17406 35.54 4.29119 35.4167 4.3736C35.2933 4.45601 35.1483 4.5 35 4.5C34.8011 4.5 34.6103 4.42098 34.4697 4.28033C34.329 4.13968 34.25 3.94891 34.25 3.75ZM37.25 3.75C37.25 3.60166 37.294 3.45666 37.3764 3.33332C37.4588 3.20999 37.5759 3.11386 37.713 3.05709C37.85 3.00032 38.0008 2.98547 38.1463 3.01441C38.2918 3.04335 38.4254 3.11478 38.5303 3.21967C38.6352 3.32456 38.7066 3.4582 38.7356 3.60368C38.7645 3.74917 38.7497 3.89997 38.6929 4.03701C38.6361 4.17406 38.54 4.29119 38.4167 4.3736C38.2933 4.45601 38.1483 4.5 38 4.5C37.8011 4.5 37.6103 4.42098 37.4697 4.28033C37.329 4.13968 37.25 3.94891 37.25 3.75ZM40.25 3.75C40.25 3.60166 40.294 3.45666 40.3764 3.33332C40.4588 3.20999 40.5759 3.11386 40.713 3.05709C40.85 3.00032 41.0008 2.98547 41.1463 3.01441C41.2918 3.04335 41.4254 3.11478 41.5303 3.21967C41.6352 3.32456 41.7066 3.4582 41.7356 3.60368C41.7645 3.74917 41.7497 3.89997 41.6929 4.03701C41.6361 4.17406 41.54 4.29119 41.4167 4.3736C41.2933 4.45601 41.1483 4.5 41 4.5C40.8011 4.5 40.6103 4.42098 40.4697 4.28033C40.329 4.13968 40.25 3.94891 40.25 3.75ZM34.2866 12.0009H34.2822C34.2715 12.0009 34.2608 12.0001 34.25 12.0001C32.2609 12.0001 30.3532 12.7903 28.9467 14.1968C27.5402 15.6033 26.75 17.511 26.75 19.5001C26.75 21.4892 27.5402 23.3969 28.9467 24.8034C30.3532 26.2099 32.2609 27.0001 34.25 27.0001C36.2249 26.9833 38.1134 26.1883 39.5057 24.7876C40.8979 23.3868 41.6815 21.4935 41.6863 19.5186C41.6911 17.5436 40.9167 15.6465 39.5313 14.239C38.1458 12.8316 36.2611 12.0274 34.2864 12.001L34.2866 12.0009ZM40.2014 18.75H37.9719C37.8593 16.9897 37.2665 15.294 36.2579 13.8469C37.3038 14.2204 38.2259 14.8763 38.9219 15.7417C39.618 16.6071 40.0608 17.6483 40.2014 18.75ZM33.5 18.75H32.0314C32.1419 17.2784 32.6495 15.8643 33.5 14.6584V18.75ZM33.5 20.25V24.3318C32.6527 23.1278 32.1455 21.7178 32.0317 20.25H33.5ZM35 20.25H36.4693C36.3588 21.7212 35.851 23.1348 35 24.34V20.25ZM35 18.75V14.6692C35.8477 15.8726 36.3552 17.2824 36.4691 18.75H35ZM32.2418 13.8469C31.2333 15.294 30.6407 16.9898 30.5281 18.75H28.2986C28.4391 17.6484 28.882 16.6072 29.5779 15.7417C30.2739 14.8763 31.1959 14.2205 32.2418 13.8469ZM28.2986 20.25H30.5281C30.6407 22.0103 31.2335 23.706 32.2421 25.1531C31.1962 24.7796 30.2741 24.1237 29.5781 23.2583C28.882 22.3929 28.4392 21.3517 28.2986 20.25ZM36.2579 25.1531C37.2665 23.706 37.8593 22.0103 37.9719 20.25H40.2012C40.0606 21.3516 39.6178 22.3928 38.9219 23.2582C38.2259 24.1236 37.304 24.7795 36.2582 25.1531H36.2579ZM21.5 15.75V18C21.5 18.1989 21.421 18.3897 21.2803 18.5303C21.1397 18.671 20.9489 18.75 20.75 18.75C20.5511 18.75 20.3603 18.671 20.2197 18.5303C20.079 18.3897 20 18.1989 20 18V17.4014L18.166 18.624C18.0428 18.7061 17.8981 18.75 17.75 18.75H15.8106L13.7803 20.7803C13.7107 20.85 13.628 20.9052 13.537 20.9429C13.446 20.9806 13.3485 21 13.25 21H11.2632L7.71875 23.8357C7.56342 23.96 7.36507 24.0175 7.16734 23.9956C6.9696 23.9737 6.78866 23.8741 6.66434 23.7188C6.54002 23.5634 6.4825 23.3651 6.50442 23.1673C6.52635 22.9696 6.62592 22.7887 6.78125 22.6643L10.5312 19.6643C10.6643 19.5579 10.8296 19.4999 11 19.5H12.9394L14.9697 17.4697C15.0393 17.4 15.122 17.3448 15.213 17.3071C15.304 17.2694 15.4015 17.25 15.5 17.25H17.5229L18.6479 16.5H18.5C18.3011 16.5 18.1103 16.421 17.9697 16.2803C17.829 16.1397 17.75 15.9489 17.75 15.75C17.75 15.5511 17.829 15.3603 17.9697 15.2197C18.1103 15.079 18.3011 15 18.5 15H20.75C20.9489 15 21.1397 15.079 21.2803 15.2197C21.421 15.3603 21.5 15.5511 21.5 15.75Z" fill="url(#paint0_linear_2001_576)"/>
<defs>
<linearGradient id="paint0_linear_2001_576" x1="23" y1="0" x2="23" y2="41.9998" gradientUnits="userSpaceOnUse">
<stop stop-color="#FA6635"/>
<stop offset="0.41" stop-color="#EA5C31"/>
<stop offset="1" stop-color="#6666CC"/>
</linearGradient>
</defs>
</svg>
