<svg width="48" height="48" viewBox="0 0 48 48" fill="none" xmlns="http://www.w3.org/2000/svg">
<path d="M36.0001 1.5H7.50006C7.30115 1.5 7.11038 1.57902 6.96973 1.71967C6.82908 1.86032 6.75006 2.05109 6.75006 2.25V15C5.75584 15.0011 4.80266 15.3966 4.09964 16.0996C3.39663 16.8026 3.00118 17.7558 3.00006 18.75V27.0945L1.66206 28.7844C1.59703 28.8665 1.54992 28.9614 1.52377 29.0628C1.49761 29.1642 1.49298 29.27 1.51019 29.3733L3.00006 38.3122V40.5C2.80115 40.5 2.61038 40.579 2.46973 40.7197C2.32908 40.8603 2.25006 41.0511 2.25006 41.25V45.75C2.25006 45.9489 2.32908 46.1397 2.46973 46.2803C2.61038 46.421 2.80115 46.5 3.00006 46.5H20.2501C20.449 46.5 20.6397 46.421 20.7804 46.2803C20.921 46.1397 21.0001 45.9489 21.0001 45.75V41.25C21.0001 41.0511 20.921 40.8603 20.7804 40.7197C20.6397 40.579 20.449 40.5 20.2501 40.5V39H36.0001C36.199 39 36.3897 38.921 36.5304 38.7803C36.671 38.6397 36.7501 38.4489 36.7501 38.25V2.25C36.7501 2.05109 36.671 1.86032 36.5304 1.71967C36.3897 1.57902 36.199 1.5 36.0001 1.5ZM4.50006 18.75C4.50073 18.1535 4.738 17.5816 5.15981 17.1597C5.58162 16.7379 6.15353 16.5007 6.75006 16.5V22.3584L4.50006 25.2V18.75ZM19.5001 45H3.75006V42H19.5001V45ZM4.50006 40.5V38.25C4.50006 38.2087 4.49668 38.1675 4.48994 38.1267L3.04459 29.4548L8.34259 22.7636C8.46757 22.6058 8.64413 22.4969 8.84132 22.4562C9.0385 22.4155 9.24372 22.4456 9.42099 22.541C9.59825 22.6365 9.73624 22.7914 9.81076 22.9784C9.88528 23.1654 9.89157 23.3728 9.82853 23.564L7.53756 30.5156C7.5005 30.6283 7.49068 30.7481 7.50892 30.8653C7.52715 30.9825 7.57291 31.0937 7.64245 31.1898C7.71199 31.2858 7.80331 31.364 7.90894 31.418C8.01456 31.4719 8.13147 31.5 8.25006 31.5C9.64197 31.5016 10.9764 32.0552 11.9606 33.0394C12.9449 34.0236 13.4985 35.3581 13.5001 36.75V38.25C13.5001 38.4489 13.5791 38.6397 13.7197 38.7803C13.8604 38.921 14.0511 39 14.2501 39H18.7501V40.5H4.50006ZM35.2501 37.5H15.0001V36.75C14.998 35.1357 14.4183 33.5753 13.3659 32.3512C12.3135 31.1271 10.8578 30.3199 9.262 30.0757L10.8157 25.3607C10.9424 25.4513 11.0943 25.5 11.2501 25.5H32.2501C32.449 25.5 32.6397 25.421 32.7804 25.2803C32.921 25.1397 33.0001 24.9489 33.0001 24.75C33.0001 24.5511 32.921 24.3603 32.7804 24.2197C32.6397 24.079 32.449 24 32.2501 24H11.2625C11.4173 23.51 11.4072 22.9828 11.2337 22.4992C11.2392 22.4992 11.2445 22.5 11.2501 22.5H32.2501C32.449 22.5 32.6397 22.421 32.7804 22.2803C32.921 22.1397 33.0001 21.9489 33.0001 21.75C33.0001 21.5511 32.921 21.3603 32.7804 21.2197C32.6397 21.079 32.449 21 32.2501 21H11.2501C11.0946 21.0001 10.943 21.0486 10.8163 21.1387C10.6896 21.2287 10.594 21.3559 10.5427 21.5027C10.4072 21.387 10.2592 21.2868 10.1013 21.2041C9.81802 21.0573 9.50782 20.9696 9.18957 20.9464C8.87132 20.9232 8.55168 20.965 8.25006 21.0691V3H35.2501V37.5ZM14.2501 13.5C15.1401 13.5 16.0101 13.2361 16.7501 12.7416C17.4901 12.2471 18.0669 11.5443 18.4075 10.7221C18.7481 9.89981 18.8372 8.99501 18.6636 8.12209C18.49 7.24918 18.0614 6.44736 17.432 5.81802C16.8027 5.18868 16.0009 4.7601 15.128 4.58647C14.2551 4.41283 13.3503 4.50195 12.528 4.84254C11.7057 5.18314 11.0029 5.75991 10.5084 6.49993C10.014 7.23995 9.75006 8.10998 9.75006 9C9.7514 10.1931 10.2259 11.3369 11.0696 12.1805C11.9132 13.0241 13.057 13.4987 14.2501 13.5ZM14.2501 6C14.8434 6 15.4234 6.17595 15.9168 6.50559C16.4101 6.83524 16.7946 7.30377 17.0217 7.85195C17.2488 8.40013 17.3082 9.00333 17.1924 9.58527C17.0767 10.1672 16.7909 10.7018 16.3714 11.1213C15.9518 11.5409 15.4173 11.8266 14.8353 11.9424C14.2534 12.0581 13.6502 11.9987 13.102 11.7716C12.5538 11.5446 12.0853 11.1601 11.7557 10.6667C11.426 10.1734 11.2501 9.59334 11.2501 9C11.251 8.20462 11.5673 7.44208 12.1297 6.87967C12.6921 6.31725 13.4547 6.00089 14.2501 6ZM20.2501 7.5C20.2501 7.30109 20.3291 7.11032 20.4697 6.96967C20.6104 6.82902 20.8011 6.75 21.0001 6.75H33.0001C33.199 6.75 33.3897 6.82902 33.5304 6.96967C33.671 7.11032 33.7501 7.30109 33.7501 7.5C33.7501 7.69891 33.671 7.88968 33.5304 8.03033C33.3897 8.17098 33.199 8.25 33.0001 8.25H21.0001C20.8011 8.25 20.6104 8.17098 20.4697 8.03033C20.3291 7.88968 20.2501 7.69891 20.2501 7.5ZM20.2501 10.5C20.2501 10.3011 20.3291 10.1103 20.4697 9.96967C20.6104 9.82902 20.8011 9.75 21.0001 9.75H33.0001C33.199 9.75 33.3897 9.82902 33.5304 9.96967C33.671 10.1103 33.7501 10.3011 33.7501 10.5C33.7501 10.6989 33.671 10.8897 33.5304 11.0303C33.3897 11.171 33.199 11.25 33.0001 11.25H21.0001C20.8011 11.25 20.6104 11.171 20.4697 11.0303C20.3291 10.8897 20.2501 10.6989 20.2501 10.5ZM33.0001 15.75C33.0001 15.9489 32.921 16.1397 32.7804 16.2803C32.6397 16.421 32.449 16.5 32.2501 16.5H11.2501C11.0512 16.5 10.8604 16.421 10.7197 16.2803C10.5791 16.1397 10.5001 15.9489 10.5001 15.75C10.5001 15.5511 10.5791 15.3603 10.7197 15.2197C10.8604 15.079 11.0512 15 11.2501 15H32.2501C32.449 15 32.6397 15.079 32.7804 15.2197C32.921 15.3603 33.0001 15.5511 33.0001 15.75ZM33.0001 18.75C33.0001 18.9489 32.921 19.1397 32.7804 19.2803C32.6397 19.421 32.449 19.5 32.2501 19.5H11.2501C11.0512 19.5 10.8604 19.421 10.7197 19.2803C10.5791 19.1397 10.5001 18.9489 10.5001 18.75C10.5001 18.5511 10.5791 18.3603 10.7197 18.2197C10.8604 18.079 11.0512 18 11.2501 18H32.2501C32.449 18 32.6397 18.079 32.7804 18.2197C32.921 18.3603 33.0001 18.5511 33.0001 18.75ZM33.0001 27.75C33.0001 27.9489 32.921 28.1397 32.7804 28.2803C32.6397 28.421 32.449 28.5 32.2501 28.5H11.2501C11.0512 28.5 10.8604 28.421 10.7197 28.2803C10.5791 28.1397 10.5001 27.9489 10.5001 27.75C10.5001 27.5511 10.5791 27.3603 10.7197 27.2197C10.8604 27.079 11.0512 27 11.2501 27H32.2501C32.449 27 32.6397 27.079 32.7804 27.2197C32.921 27.3603 33.0001 27.5511 33.0001 27.75ZM33.0001 33.75C33.0001 33.9489 32.921 34.1397 32.7804 34.2803C32.6397 34.421 32.449 34.5 32.2501 34.5H25.5001C25.4016 34.5 25.304 34.4806 25.213 34.4429C25.122 34.4052 25.0394 34.35 24.9697 34.2803L24.0001 33.3106L23.0304 34.2803C22.9366 34.3742 22.8195 34.4415 22.6911 34.4753C22.5628 34.5091 22.4278 34.5082 22.2999 34.4728C22.172 34.4374 22.0557 34.3686 21.9631 34.2736C21.8704 34.1786 21.8047 34.0606 21.7725 33.9319L21.306 32.0662L18.4688 34.3357C18.3135 34.46 18.1151 34.5175 17.9174 34.4956C17.7197 34.4737 17.5387 34.3741 17.4144 34.2188C17.2901 34.0634 17.2326 33.8651 17.2545 33.6673C17.2764 33.4696 17.376 33.2887 17.5313 33.1643L21.2813 30.1643C21.3795 30.0858 21.4958 30.0332 21.6196 30.0114C21.7433 29.9896 21.8706 29.9992 21.9897 30.0394C22.1088 30.0796 22.2159 30.1491 22.3011 30.2415C22.3864 30.3339 22.447 30.4462 22.4775 30.5681L22.9062 32.283L23.4695 31.7197C23.5392 31.65 23.6219 31.5948 23.7129 31.5571C23.8038 31.5194 23.9014 31.5 23.9999 31.5C24.0984 31.5 24.1959 31.5194 24.2869 31.5571C24.3779 31.5948 24.4606 31.65 24.5302 31.7197L25.8107 33H32.2501C32.449 33 32.6397 33.079 32.7804 33.2197C32.921 33.3603 33.0001 33.5511 33.0001 33.75ZM46.4208 23.6646L45.7501 22.3229V15C45.7489 14.0058 45.3535 13.0526 44.6505 12.3496C43.9475 11.6466 42.9943 11.2511 42.0001 11.25H41.2501V10.5C41.2501 10.3011 41.171 10.1103 41.0304 9.96967C40.8897 9.82902 40.699 9.75 40.5001 9.75C40.3012 9.75 40.1104 9.82902 39.9697 9.96967C39.8291 10.1103 39.7501 10.3011 39.7501 10.5V11.25H39.0001C38.8012 11.25 38.6104 11.329 38.4697 11.4697C38.3291 11.6103 38.2501 11.8011 38.2501 12V40.5H38.2513C38.2509 40.5697 38.2604 40.6392 38.2794 40.7063L39.7794 45.9563C39.8242 46.1129 39.9188 46.2508 40.0489 46.3489C40.179 46.4471 40.3376 46.5001 40.5005 46.5001C40.6635 46.5001 40.822 46.4471 40.9522 46.3489C41.0823 46.2508 41.1769 46.1129 41.2217 45.9563L42.7217 40.7063C42.7407 40.6392 42.7501 40.5697 42.7498 40.5H42.7501V12.879C43.1884 13.0345 43.5679 13.3219 43.8364 13.7016C44.105 14.0814 44.2495 14.5349 44.2501 15V22.5C44.25 22.6164 44.2772 22.7313 44.3293 22.8354L45.0793 24.3354C45.1229 24.4243 45.1836 24.5037 45.258 24.569C45.3324 24.6343 45.419 24.6842 45.5128 24.7158C45.6066 24.7475 45.7057 24.7603 45.8044 24.7534C45.9032 24.7466 45.9996 24.7203 46.0881 24.676C46.1767 24.6318 46.2556 24.5704 46.3203 24.4955C46.385 24.4206 46.4342 24.3336 46.4651 24.2396C46.4961 24.1456 46.5081 24.0463 46.5005 23.9476C46.4929 23.849 46.4658 23.7527 46.4208 23.6646ZM41.2501 14.25H39.7501V12.75H41.2501V14.25ZM40.5001 43.0199L39.9943 41.25H41.0063L40.5001 43.0199ZM39.7501 39.75V15.75H41.2501V39.75H39.7501Z" fill="url(#paint0_linear_366_4788)"/>
<defs>
<linearGradient id="paint0_linear_366_4788" x1="24.0013" y1="1.5" x2="24.0013" y2="46.5001" gradientUnits="userSpaceOnUse">
<stop stop-color="#FA6635"/>
<stop offset="0.41" stop-color="#EA5C31"/>
<stop offset="1" stop-color="#6666CC"/>
</linearGradient>
</defs>
</svg>
