<svg width="46" height="48" viewBox="0 0 46 48" fill="none" xmlns="http://www.w3.org/2000/svg">
<path d="M44.75 7.5C44.9489 7.5 45.1397 7.42099 45.2803 7.28033C45.421 7.13968 45.5 6.94892 45.5 6.75V3C45.5 2.80109 45.421 2.61032 45.2803 2.46967C45.1397 2.32902 44.9489 2.25 44.75 2.25H41C40.8011 2.25 40.6103 2.32902 40.4697 2.46967C40.329 2.61032 40.25 2.80109 40.25 3C40.25 3.19892 40.329 3.38968 40.4697 3.53033C40.6103 3.67099 40.8011 3.75 41 3.75H42.9393L39.9393 6.75H37.871C37.7697 6.46137 37.6105 6.19644 37.4034 5.97139C37.1962 5.74634 36.9453 5.5659 36.666 5.4411C36.3867 5.3163 36.0849 5.24976 35.779 5.24555C35.4731 5.24134 35.1696 5.29955 34.887 5.41661C34.6044 5.53368 34.3486 5.70714 34.1353 5.9264C33.922 6.14566 33.7556 6.40612 33.6464 6.69185C33.5372 6.97758 33.4873 7.28259 33.5 7.58823C33.5126 7.89387 33.5874 8.19373 33.7198 8.46947L27.7198 14.4695C27.4352 14.3334 27.125 14.2587 26.8096 14.2503C26.4942 14.2419 26.1805 14.3 25.889 14.4208C25.5975 14.5416 25.3346 14.7223 25.1176 14.9513C24.9005 15.1803 24.734 15.4525 24.629 15.75H17.621C17.5172 15.4554 17.3531 15.1857 17.1393 14.9579C16.9255 14.7302 16.6667 14.5495 16.3792 14.4274C16.0917 14.3052 15.782 14.2442 15.4696 14.2484C15.1573 14.2525 14.8493 14.3216 14.5651 14.4514C14.281 14.5811 14.027 14.7686 13.8193 15.0018C13.6115 15.2351 13.4547 15.5091 13.3587 15.8064C13.2627 16.1036 13.2297 16.4176 13.2617 16.7283C13.2937 17.039 13.3901 17.3396 13.5447 17.611L12.6969 18.5888L10.9813 18.1599C11.0207 17.9792 10.9921 17.7903 10.9007 17.6294C10.8093 17.4686 10.6618 17.3472 10.4863 17.2885L1.48634 14.2885C1.37366 14.2511 1.25369 14.241 1.13633 14.259C1.01896 14.277 0.907543 14.3226 0.811243 14.3921C0.714943 14.4615 0.636512 14.5529 0.582402 14.6585C0.528292 14.7642 0.50005 14.8813 0.5 15V31.4348C0.500001 31.5906 0.548491 31.7425 0.638739 31.8694C0.728988 31.9964 0.856517 32.0921 1.00362 32.1432L5.50362 33.7089C5.59923 33.7421 5.70058 33.7556 5.80156 33.7487C5.90254 33.7417 6.00106 33.7144 6.09119 33.6683C6.18133 33.6223 6.26121 33.5584 6.32602 33.4807C6.39083 33.4029 6.43923 33.3129 6.46831 33.2159L6.63369 32.6648L21.3447 46.7067C21.6348 46.9833 21.9904 47.1815 22.3782 47.2826C22.766 47.3837 23.1732 47.3844 23.5613 47.2847C23.9495 47.185 24.3058 46.9881 24.5969 46.7126C24.8879 46.4371 25.104 46.092 25.2248 45.7099C25.5202 45.8136 25.8334 45.8569 26.1459 45.8373C26.4584 45.8178 26.7637 45.7357 27.0439 45.5959C27.3241 45.4562 27.5733 45.2617 27.777 45.0238C27.9806 44.786 28.1344 44.5097 28.2293 44.2114C28.6448 44.356 29.0927 44.3806 29.5216 44.2823C29.9505 44.1841 30.3431 43.967 30.6542 43.6559C30.9654 43.3449 31.1827 42.9524 31.2811 42.5235C31.3794 42.0947 31.355 41.6468 31.2105 41.2312C31.7005 41.0748 32.1253 40.7615 32.4193 40.3395C32.7133 39.9176 32.8601 39.4105 32.8371 38.8968L39.366 32.6646L39.5314 33.2157C39.5605 33.3127 39.6089 33.4027 39.6737 33.4805C39.7385 33.5582 39.8184 33.6221 39.9085 33.6681C39.9987 33.7142 40.0972 33.7415 40.1982 33.7485C40.2991 33.7554 40.4005 33.7419 40.4961 33.7087L44.9961 32.143C45.1432 32.0919 45.2708 31.9963 45.3611 31.8694C45.4514 31.7425 45.4999 31.5906 45.5 31.4348V15C45.5 14.8812 45.4717 14.764 45.4176 14.6583C45.3634 14.5525 45.2849 14.4611 45.1885 14.3916C45.0921 14.3221 44.9806 14.2765 44.8631 14.2586C44.7456 14.2407 44.6255 14.251 44.5128 14.2885L35.5128 17.2885C35.3397 17.3463 35.1937 17.4651 35.1019 17.6228C35.0101 17.7805 34.979 17.9662 35.0143 18.1452L22.2601 20.9795L14.3289 18.9967L14.678 18.5935C14.959 18.7041 15.2593 18.757 15.5612 18.749C15.863 18.7409 16.1601 18.6722 16.4348 18.5468C16.7095 18.4214 16.9561 18.2419 17.1599 18.0191C17.3637 17.7963 17.5205 17.5347 17.621 17.25H24.629C24.7303 17.5386 24.8895 17.8036 25.0966 18.0286C25.3038 18.2537 25.5547 18.4341 25.834 18.5589C26.1133 18.6837 26.4151 18.7502 26.721 18.7545C27.0269 18.7587 27.3304 18.7005 27.613 18.5834C27.8956 18.4663 28.1514 18.2929 28.3647 18.0736C28.578 17.8543 28.7444 17.5939 28.8536 17.3082C28.9628 17.0224 29.0127 16.7174 29 16.4118C28.9874 16.1061 28.9126 15.8063 28.7802 15.5305L34.7802 9.53053C35.0648 9.66663 35.375 9.74129 35.6904 9.74968C36.0058 9.75807 36.3195 9.69998 36.611 9.57921C36.9025 9.45844 37.1654 9.27768 37.3824 9.04867C37.5995 8.81967 37.766 8.54755 37.871 8.25H40.25C40.3485 8.25001 40.446 8.23061 40.537 8.19292C40.628 8.15523 40.7107 8.09999 40.7803 8.03035L44 4.81069V6.75C44 6.94892 44.079 7.13968 44.2197 7.28033C44.3603 7.42099 44.5511 7.5 44.75 7.5ZM2 16.0406L4.41416 16.8454L2 25.7823V16.0406ZM5.25669 32.0344L2.15628 30.9563L5.83963 17.3205L9.32253 18.4815L5.25669 32.0344ZM44 16.0406V25.7823L41.5858 16.8454L44 16.0406ZM40.1604 17.3205L43.8437 30.9563L40.7433 32.0344L36.6775 18.4815L40.1604 17.3205ZM22.6185 22.4364L35.443 19.5864L38.8827 31.0521L32.2198 37.4122C32.1987 37.3893 32.1776 37.3665 32.1553 37.3444L23.0161 28.2052L27.0854 26.1708C27.2634 26.0818 27.3986 25.9258 27.4615 25.7371C27.5244 25.5484 27.5098 25.3424 27.4208 25.1645C27.3319 24.9866 27.1759 24.8513 26.9872 24.7884C26.7984 24.7255 26.5925 24.7402 26.4146 24.8291L18.7375 28.6676C18.552 28.7604 18.3407 28.7882 18.1375 28.7465C17.9344 28.7048 17.7511 28.5961 17.6171 28.4378C17.4832 28.2795 17.4062 28.0807 17.3987 27.8735C17.3912 27.6662 17.4536 27.4624 17.5757 27.2948L22.6185 22.4364ZM16.4296 26.325C16.0847 26.7568 15.8976 27.2935 15.8992 27.8461C15.9008 28.3988 16.0911 28.9343 16.4386 29.3641C16.786 29.7938 17.2698 30.0921 17.8099 30.2094C18.3499 30.3268 18.9139 30.2562 19.4083 30.0094L21.6021 28.9125L31.0947 38.4053C31.2503 38.5635 31.3371 38.7767 31.3362 38.9986C31.3354 39.2205 31.2468 39.433 31.0899 39.59C30.9331 39.7468 30.7205 39.8354 30.4986 39.8363C30.2768 39.8372 30.0635 39.7504 29.9053 39.5948L23.5303 33.2198C23.3894 33.0805 23.1991 33.0027 23.001 33.0033C22.8029 33.0039 22.613 33.0828 22.4729 33.2229C22.3328 33.363 22.2538 33.5528 22.2532 33.751C22.2526 33.9491 22.3304 34.1394 22.4697 34.2803L29.5947 41.4053C29.7503 41.5635 29.8371 41.7767 29.8362 41.9986C29.8354 42.2205 29.7468 42.433 29.5899 42.59C29.4331 42.7469 29.2205 42.8354 28.9986 42.8363C28.7768 42.8372 28.5635 42.7504 28.4053 42.5948L21.2803 35.4698C21.1394 35.3305 20.9491 35.2527 20.751 35.2533C20.5529 35.2539 20.363 35.3328 20.2229 35.4729C20.0828 35.613 20.0038 35.8028 20.0032 36.001C20.0026 36.1991 20.0804 36.3894 20.2197 36.5303L26.5947 42.9053C26.7503 43.0635 26.8371 43.2767 26.8362 43.4986C26.8354 43.7205 26.7468 43.933 26.5899 44.09C26.4331 44.2469 26.2205 44.3354 25.9986 44.3363C25.7768 44.3372 25.5635 44.2504 25.4053 44.0948L18.2803 36.9698C18.1394 36.8305 17.9491 36.7527 17.751 36.7533C17.5529 36.7539 17.363 36.8328 17.2229 36.9729C17.0828 37.113 17.0038 37.3028 17.0032 37.501C17.0026 37.6991 17.0804 37.8894 17.2197 38.0303L23.5821 44.3928C23.7431 44.554 23.8336 44.7725 23.8336 45.0003C23.8336 45.2281 23.7431 45.4466 23.5821 45.6078C23.4227 45.7653 23.2084 45.8548 22.9843 45.8574C22.7602 45.86 22.5439 45.7755 22.3809 45.6218L7.11725 31.0524L10.5533 19.599L20.7552 22.149C19.2287 23.6213 16.4443 26.3063 16.4296 26.325ZM15.5 17.25C15.3517 17.25 15.2067 17.206 15.0833 17.1236C14.96 17.0412 14.8639 16.9241 14.8071 16.787C14.7503 16.65 14.7355 16.4992 14.7644 16.3537C14.7934 16.2082 14.8648 16.0746 14.9697 15.9697C15.0746 15.8648 15.2082 15.7934 15.3537 15.7644C15.4992 15.7355 15.65 15.7503 15.787 15.8071C15.9241 15.8639 16.0412 15.96 16.1236 16.0833C16.206 16.2067 16.25 16.3517 16.25 16.5C16.2498 16.6988 16.1707 16.8895 16.0301 17.0301C15.8895 17.1707 15.6988 17.2498 15.5 17.25ZM26.75 17.25C26.6017 17.25 26.4567 17.206 26.3333 17.1236C26.21 17.0412 26.1139 16.9241 26.0571 16.787C26.0003 16.65 25.9855 16.4992 26.0144 16.3537C26.0434 16.2082 26.1148 16.0746 26.2197 15.9697C26.3246 15.8648 26.4582 15.7934 26.6037 15.7644C26.7492 15.7355 26.9 15.7503 27.037 15.8071C27.1741 15.8639 27.2912 15.96 27.3736 16.0833C27.456 16.2067 27.5 16.3517 27.5 16.5C27.4998 16.6988 27.4207 16.8895 27.2801 17.0301C27.1395 17.1707 26.9488 17.2498 26.75 17.25ZM35.75 8.25C35.6017 8.25 35.4567 8.20602 35.3333 8.12361C35.21 8.04119 35.1139 7.92406 35.0571 7.78702C35.0003 7.64997 34.9855 7.49917 35.0144 7.35369C35.0434 7.2082 35.1148 7.07456 35.2197 6.96967C35.3246 6.86478 35.4582 6.79335 35.6037 6.76441C35.7492 6.73548 35.9 6.75033 36.037 6.80709C36.1741 6.86386 36.2912 6.95999 36.3736 7.08333C36.456 7.20666 36.5 7.35167 36.5 7.5C36.4998 7.69885 36.4207 7.88948 36.2801 8.03009C36.1395 8.17069 35.9488 8.24978 35.75 8.25ZM21.5 12.75C22.6867 12.75 23.8467 12.3981 24.8334 11.7388C25.8201 11.0795 26.5892 10.1425 27.0433 9.0461C27.4974 7.94975 27.6162 6.74335 27.3847 5.57946C27.1532 4.41558 26.5818 3.34648 25.7426 2.50736C24.9035 1.66825 23.8344 1.0968 22.6705 0.865291C21.5067 0.63378 20.3003 0.7526 19.2039 1.20673C18.1075 1.66085 17.1705 2.42989 16.5112 3.41658C15.8519 4.40328 15.5 5.56332 15.5 6.75C15.5018 8.34075 16.1345 9.86584 17.2593 10.9907C18.3842 12.1155 19.9093 12.7482 21.5 12.75ZM21.5 2.25C22.39 2.25 23.26 2.51392 24.0001 3.00839C24.7401 3.50286 25.3169 4.20566 25.6575 5.02793C25.9981 5.8502 26.0872 6.755 25.9135 7.62791C25.7399 8.50082 25.3113 9.30265 24.682 9.93198C24.0526 10.5613 23.2508 10.9899 22.3779 11.1635C21.505 11.3372 20.6002 11.2481 19.7779 10.9075C18.9557 10.5669 18.2529 9.99009 17.7584 9.25007C17.2639 8.51005 17 7.64002 17 6.75C17.0014 5.55695 17.4759 4.41315 18.3195 3.56953C19.1631 2.72591 20.3069 2.25137 21.5 2.25ZM18.7197 7.28035C18.65 7.2107 18.5948 7.12802 18.5571 7.03702C18.5194 6.94603 18.5 6.8485 18.5 6.75C18.5 6.65151 18.5194 6.55398 18.5571 6.46298C18.5948 6.37199 18.65 6.28931 18.7197 6.21966C18.8603 6.079 19.0511 5.99998 19.25 5.99998C19.3485 5.99998 19.446 6.01938 19.537 6.05708C19.628 6.09477 19.7107 6.15001 19.7803 6.21966L20.75 7.18941L23.2197 4.71966C23.2893 4.65001 23.372 4.59477 23.463 4.55708C23.554 4.51938 23.6515 4.49998 23.75 4.49998C23.8485 4.49998 23.946 4.51938 24.037 4.55708C24.128 4.59477 24.2107 4.65001 24.2803 4.71966C24.35 4.78931 24.4052 4.87199 24.4429 4.96298C24.4806 5.05398 24.5 5.15151 24.5 5.25C24.5 5.3485 24.4806 5.44603 24.4429 5.53702C24.4052 5.62802 24.35 5.7107 24.2803 5.78035L21.2803 8.78035C21.2107 8.84999 21.128 8.90524 21.037 8.94294C20.946 8.98063 20.8485 9.00003 20.75 9.00003C20.6515 9.00003 20.554 8.98063 20.463 8.94294C20.372 8.90524 20.2893 8.84999 20.2197 8.78035L18.7197 7.28035Z" fill="url(#paint0_linear_2001_36)"/>
<defs>
<linearGradient id="paint0_linear_2001_36" x1="23" y1="0.75" x2="23" y2="47.359" gradientUnits="userSpaceOnUse">
<stop stop-color="#FA6635"/>
<stop offset="0.41" stop-color="#EA5C31"/>
<stop offset="1" stop-color="#6666CC"/>
</linearGradient>
</defs>
</svg>
