<svg width="48" height="48" viewBox="0 0 48 48" fill="none" xmlns="http://www.w3.org/2000/svg">
<path d="M45.75 6C45.9489 6 46.1397 5.92098 46.2803 5.78033C46.421 5.63968 46.5 5.44891 46.5 5.25V2.25C46.5 2.05109 46.421 1.86032 46.2803 1.71967C46.1397 1.57902 45.9489 1.5 45.75 1.5H2.25C2.05109 1.5 1.86032 1.57902 1.71967 1.71967C1.57902 1.86032 1.5 2.05109 1.5 2.25V5.25C1.5 5.44891 1.57902 5.63968 1.71967 5.78033C1.86032 5.92098 2.05109 6 2.25 6H3V29.25H2.25C2.05109 29.25 1.86032 29.329 1.71967 29.4697C1.57902 29.6103 1.5 29.8011 1.5 30V33C1.5 33.1989 1.57902 33.3897 1.71967 33.5303C1.86032 33.671 2.05109 33.75 2.25 33.75H22.1893L10.7197 45.2197C10.579 45.3603 10.5 45.5511 10.5 45.75C10.5 45.9489 10.579 46.1397 10.7197 46.2803C10.8603 46.421 11.0511 46.5 11.25 46.5C11.4489 46.5 11.6397 46.421 11.7803 46.2803L24 34.0606L36.2197 46.2803C36.2893 46.35 36.372 46.4052 36.463 46.4429C36.554 46.4806 36.6515 46.5 36.75 46.5C36.8485 46.5 36.946 46.4806 37.037 46.4429C37.128 46.4052 37.2107 46.35 37.2803 46.2803C37.35 46.2107 37.4052 46.128 37.4429 46.037C37.4806 45.946 37.5 45.8485 37.5 45.75C37.5 45.6515 37.4806 45.554 37.4429 45.463C37.4052 45.372 37.35 45.2893 37.2803 45.2197L25.8107 33.75H45.75C45.9489 33.75 46.1397 33.671 46.2803 33.5303C46.421 33.3897 46.5 33.1989 46.5 33V30C46.5 29.8011 46.421 29.6103 46.2803 29.4697C46.1397 29.329 45.9489 29.25 45.75 29.25H45V6H45.75ZM3 3H45V4.5H3V3ZM45 32.25H3V30.75H45V32.25ZM43.5 29.25H4.5V6H43.5V29.25ZM12 19.5C13.1867 19.5 14.3467 19.1481 15.3334 18.4888C16.3201 17.8295 17.0892 16.8925 17.5433 15.7961C17.9974 14.6997 18.1162 13.4933 17.8847 12.3295C17.6532 11.1656 17.0818 10.0965 16.2426 9.25736C15.4035 8.41824 14.3344 7.8468 13.1705 7.61529C12.0067 7.38378 10.8003 7.5026 9.7039 7.95672C8.60754 8.41085 7.67047 9.17988 7.01118 10.1666C6.35189 11.1533 6 12.3133 6 13.5C6.00179 15.0908 6.6345 16.6158 7.75933 17.7407C8.88416 18.8655 10.4092 19.4982 12 19.5ZM12.75 9.06366C13.585 9.20489 14.363 9.57954 14.994 10.1443L12.75 11.9395V9.06366ZM11.25 9.06366V13.5C11.25 13.6413 11.2899 13.7798 11.3651 13.8994C11.4403 14.019 11.5478 14.115 11.6752 14.1762C11.8025 14.2374 11.9446 14.2614 12.085 14.2454C12.2254 14.2293 12.3584 14.174 12.4688 14.0857L15.9322 11.3149C16.396 12.1497 16.5821 13.1105 16.4636 14.0582C16.3451 15.0059 15.9282 15.8913 15.273 16.5862C14.6179 17.2812 13.7586 17.7496 12.8196 17.9237C11.8805 18.0979 10.9104 17.9687 10.0497 17.5548C9.18893 17.141 8.48222 16.4639 8.03182 15.6217C7.58142 14.7796 7.41071 13.8159 7.54439 12.8702C7.67807 11.9246 8.10921 11.046 8.7754 10.3616C9.4416 9.6773 10.3083 9.2227 11.25 9.06366ZM19.5 9C19.5 8.80109 19.579 8.61032 19.7197 8.46967C19.8603 8.32902 20.0511 8.25 20.25 8.25H41.25C41.4489 8.25 41.6397 8.32902 41.7803 8.46967C41.921 8.61032 42 8.80109 42 9C42 9.19891 41.921 9.38968 41.7803 9.53033C41.6397 9.67098 41.4489 9.75 41.25 9.75H20.25C20.0511 9.75 19.8603 9.67098 19.7197 9.53033C19.579 9.38968 19.5 9.19891 19.5 9ZM19.5 12C19.5 11.8011 19.579 11.6103 19.7197 11.4697C19.8603 11.329 20.0511 11.25 20.25 11.25H41.25C41.4489 11.25 41.6397 11.329 41.7803 11.4697C41.921 11.6103 42 11.8011 42 12C42 12.1989 41.921 12.3897 41.7803 12.5303C41.6397 12.671 41.4489 12.75 41.25 12.75H20.25C20.0511 12.75 19.8603 12.671 19.7197 12.5303C19.579 12.3897 19.5 12.1989 19.5 12ZM19.5 15C19.5 14.8011 19.579 14.6103 19.7197 14.4697C19.8603 14.329 20.0511 14.25 20.25 14.25H41.25C41.4489 14.25 41.6397 14.329 41.7803 14.4697C41.921 14.6103 42 14.8011 42 15C42 15.1989 41.921 15.3897 41.7803 15.5303C41.6397 15.671 41.4489 15.75 41.25 15.75H20.25C20.0511 15.75 19.8603 15.671 19.7197 15.5303C19.579 15.3897 19.5 15.1989 19.5 15ZM19.5 18C19.5 17.8011 19.579 17.6103 19.7197 17.4697C19.8603 17.329 20.0511 17.25 20.25 17.25H41.25C41.4489 17.25 41.6397 17.329 41.7803 17.4697C41.921 17.6103 42 17.8011 42 18C42 18.1989 41.921 18.3897 41.7803 18.5303C41.6397 18.671 41.4489 18.75 41.25 18.75H20.25C20.0511 18.75 19.8603 18.671 19.7197 18.5303C19.579 18.3897 19.5 18.1989 19.5 18ZM16.5 21.75H7.5C7.30109 21.75 7.11032 21.829 6.96967 21.9697C6.82902 22.1103 6.75 22.3011 6.75 22.5V25.5C6.75 25.6989 6.82902 25.8897 6.96967 26.0303C7.11032 26.171 7.30109 26.25 7.5 26.25H16.5C16.6989 26.25 16.8897 26.171 17.0303 26.0303C17.171 25.8897 17.25 25.6989 17.25 25.5V22.5C17.25 22.3011 17.171 22.1103 17.0303 21.9697C16.8897 21.829 16.6989 21.75 16.5 21.75ZM15.75 24.75H8.25V23.25H15.75V24.75ZM19.5 26.25H28.5C28.6989 26.25 28.8897 26.171 29.0303 26.0303C29.171 25.8897 29.25 25.6989 29.25 25.5V22.5C29.25 22.3011 29.171 22.1103 29.0303 21.9697C28.8897 21.829 28.6989 21.75 28.5 21.75H19.5C19.3011 21.75 19.1103 21.829 18.9697 21.9697C18.829 22.1103 18.75 22.3011 18.75 22.5V25.5C18.75 25.6989 18.829 25.8897 18.9697 26.0303C19.1103 26.171 19.3011 26.25 19.5 26.25ZM20.25 23.25H27.75V24.75H20.25V23.25ZM40.5 21.75H31.5C31.3011 21.75 31.1103 21.829 30.9697 21.9697C30.829 22.1103 30.75 22.3011 30.75 22.5V25.5C30.75 25.6989 30.829 25.8897 30.9697 26.0303C31.1103 26.171 31.3011 26.25 31.5 26.25H40.5C40.6989 26.25 40.8897 26.171 41.0303 26.0303C41.171 25.8897 41.25 25.6989 41.25 25.5V22.5C41.25 22.3011 41.171 22.1103 41.0303 21.9697C40.8897 21.829 40.6989 21.75 40.5 21.75ZM39.75 24.75H32.25V23.25H39.75V24.75Z" fill="url(#paint0_linear_321_1542)"/>
<defs>
<linearGradient id="paint0_linear_321_1542" x1="24" y1="1.5" x2="24" y2="46.5" gradientUnits="userSpaceOnUse">
<stop stop-color="#FA6635"/>
<stop offset="0.41" stop-color="#EA5C31"/>
<stop offset="1" stop-color="#6666CC"/>
</linearGradient>
</defs>
</svg>
