<svg width="48" height="48" viewBox="0 0 48 48" fill="none" xmlns="http://www.w3.org/2000/svg">
<path d="M8.25 46.5H39.75C40.3465 46.4993 40.9184 46.2621 41.3403 45.8403C41.7621 45.4184 41.9993 44.8465 42 44.25V7.5C41.9993 6.90347 41.7621 6.33156 41.3403 5.90975C40.9184 5.48794 40.3465 5.25067 39.75 5.25H31.5V3.75C31.5 3.55109 31.421 3.36032 31.2803 3.21967C31.1397 3.07902 30.9489 3 30.75 3H28.3715C28.2159 2.56162 27.9284 2.18212 27.5486 1.91356C27.1688 1.645 26.7152 1.50054 26.25 1.5H21.75C21.2848 1.50054 20.8312 1.645 20.4514 1.91356C20.0716 2.18212 19.7841 2.56162 19.6285 3H17.25C17.0511 3 16.8603 3.07902 16.7197 3.21967C16.579 3.36032 16.5 3.55109 16.5 3.75V5.25H8.25C7.65347 5.25067 7.08156 5.48794 6.65975 5.90975C6.23794 6.33156 6.00067 6.90347 6 7.5V44.25C6.00067 44.8465 6.23794 45.4184 6.65975 45.8403C7.08156 46.2621 7.65347 46.4993 8.25 46.5ZM18 4.5H20.25C20.4489 4.5 20.6397 4.42098 20.7803 4.28033C20.921 4.13968 21 3.94891 21 3.75C21.0002 3.55116 21.0793 3.36052 21.2199 3.21992C21.3605 3.07931 21.5512 3.00022 21.75 3H26.25C26.4488 3.00022 26.6395 3.07931 26.7801 3.21992C26.9207 3.36052 26.9998 3.55116 27 3.75C27 3.94891 27.079 4.13968 27.2197 4.28033C27.3603 4.42098 27.5511 4.5 27.75 4.5H30V6.75H18V4.5ZM7.5 7.5C7.50022 7.30116 7.57931 7.11052 7.71992 6.96992C7.86052 6.82931 8.05116 6.75022 8.25 6.75H16.5V7.5C16.5 7.69891 16.579 7.88968 16.7197 8.03033C16.8603 8.17098 17.0511 8.25 17.25 8.25H30.75C30.9489 8.25 31.1397 8.17098 31.2803 8.03033C31.421 7.88968 31.5 7.69891 31.5 7.5V6.75H39.75C39.9488 6.75022 40.1395 6.82931 40.2801 6.96992C40.4207 7.11052 40.4998 7.30116 40.5 7.5V44.25C40.4998 44.4488 40.4207 44.6395 40.2801 44.7801C40.1395 44.9207 39.9488 44.9998 39.75 45H8.25C8.05116 44.9998 7.86052 44.9207 7.71992 44.7801C7.57931 44.6395 7.50022 44.4488 7.5 44.25V7.5ZM9.75 43.5H38.25C38.4489 43.5 38.6397 43.421 38.7803 43.2803C38.921 43.1397 39 42.9489 39 42.75V10.5C39 10.3011 38.921 10.1103 38.7803 9.96967C38.6397 9.82902 38.4489 9.75 38.25 9.75H9.75C9.55109 9.75 9.36032 9.82902 9.21967 9.96967C9.07902 10.1103 9 10.3011 9 10.5V42.75C9 42.9489 9.07902 43.1397 9.21967 43.2803C9.36032 43.421 9.55109 43.5 9.75 43.5ZM10.5 11.25H37.5V42H10.5V11.25ZM35.25 31.5C35.25 31.6989 35.171 31.8897 35.0303 32.0303C34.8897 32.171 34.6989 32.25 34.5 32.25H17.25C17.0511 32.25 16.8603 32.171 16.7197 32.0303C16.579 31.8897 16.5 31.6989 16.5 31.5C16.5 31.3011 16.579 31.1103 16.7197 30.9697C16.8603 30.829 17.0511 30.75 17.25 30.75H34.5C34.6989 30.75 34.8897 30.829 35.0303 30.9697C35.171 31.1103 35.25 31.3011 35.25 31.5ZM35.25 35.25C35.25 35.4489 35.171 35.6397 35.0303 35.7803C34.8897 35.921 34.6989 36 34.5 36H17.25C17.0511 36 16.8603 35.921 16.7197 35.7803C16.579 35.6397 16.5 35.4489 16.5 35.25C16.5 35.0511 16.579 34.8603 16.7197 34.7197C16.8603 34.579 17.0511 34.5 17.25 34.5H34.5C34.6989 34.5 34.8897 34.579 35.0303 34.7197C35.171 34.8603 35.25 35.0511 35.25 35.25ZM15 31.5C15 31.6989 14.921 31.8897 14.7803 32.0303C14.6397 32.171 14.4489 32.25 14.25 32.25H13.5C13.3011 32.25 13.1103 32.171 12.9697 32.0303C12.829 31.8897 12.75 31.6989 12.75 31.5C12.75 31.3011 12.829 31.1103 12.9697 30.9697C13.1103 30.829 13.3011 30.75 13.5 30.75H14.25C14.4489 30.75 14.6397 30.829 14.7803 30.9697C14.921 31.1103 15 31.3011 15 31.5ZM35.25 27.75C35.25 27.9489 35.171 28.1397 35.0303 28.2803C34.8897 28.421 34.6989 28.5 34.5 28.5H17.25C17.0511 28.5 16.8603 28.421 16.7197 28.2803C16.579 28.1397 16.5 27.9489 16.5 27.75C16.5 27.5511 16.579 27.3603 16.7197 27.2197C16.8603 27.079 17.0511 27 17.25 27H34.5C34.6989 27 34.8897 27.079 35.0303 27.2197C35.171 27.3603 35.25 27.5511 35.25 27.75ZM15 27.75C15 27.9489 14.921 28.1397 14.7803 28.2803C14.6397 28.421 14.4489 28.5 14.25 28.5H13.5C13.3011 28.5 13.1103 28.421 12.9697 28.2803C12.829 28.1397 12.75 27.9489 12.75 27.75C12.75 27.5511 12.829 27.3603 12.9697 27.2197C13.1103 27.079 13.3011 27 13.5 27H14.25C14.4489 27 14.6397 27.079 14.7803 27.2197C14.921 27.3603 15 27.5511 15 27.75ZM15 35.25C15 35.4489 14.921 35.6397 14.7803 35.7803C14.6397 35.921 14.4489 36 14.25 36H13.5C13.3011 36 13.1103 35.921 12.9697 35.7803C12.829 35.6397 12.75 35.4489 12.75 35.25C12.75 35.0511 12.829 34.8603 12.9697 34.7197C13.1103 34.579 13.3011 34.5 13.5 34.5H14.25C14.4489 34.5 14.6397 34.579 14.7803 34.7197C14.921 34.8603 15 35.0511 15 35.25ZM35.25 39C35.25 39.1989 35.171 39.3897 35.0303 39.5303C34.8897 39.671 34.6989 39.75 34.5 39.75H17.25C17.0511 39.75 16.8603 39.671 16.7197 39.5303C16.579 39.3897 16.5 39.1989 16.5 39C16.5 38.8011 16.579 38.6103 16.7197 38.4697C16.8603 38.329 17.0511 38.25 17.25 38.25H34.5C34.6989 38.25 34.8897 38.329 35.0303 38.4697C35.171 38.6103 35.25 38.8011 35.25 39ZM15 39C15 39.1989 14.921 39.3897 14.7803 39.5303C14.6397 39.671 14.4489 39.75 14.25 39.75H13.5C13.3011 39.75 13.1103 39.671 12.9697 39.5303C12.829 39.3897 12.75 39.1989 12.75 39C12.75 38.8011 12.829 38.6103 12.9697 38.4697C13.1103 38.329 13.3011 38.25 13.5 38.25H14.25C14.4489 38.25 14.6397 38.329 14.7803 38.4697C14.921 38.6103 15 38.8011 15 39ZM36 14.25V17.25C36 17.4489 35.921 17.6397 35.7803 17.7803C35.6397 17.921 35.4489 18 35.25 18C35.0511 18 34.8603 17.921 34.7197 17.7803C34.579 17.6397 34.5 17.4489 34.5 17.25V15.9201L28.9982 20.8105C28.8552 20.9376 28.6691 21.0052 28.4779 20.9996C28.2867 20.994 28.1049 20.9156 27.9697 20.7803L26.6369 19.4476C26.3459 19.5276 26.0372 19.5158 25.7531 19.4137L21.4881 23.0699C21.3446 23.1929 21.16 23.2572 20.9712 23.2499C20.7824 23.2427 20.6033 23.1644 20.4697 23.0308L19.1369 21.6981C18.8133 21.7866 18.4692 21.7625 18.1611 21.6296L13.2 25.35C13.0409 25.4693 12.8408 25.5206 12.6439 25.4925C12.447 25.4643 12.2693 25.3591 12.15 25.2C12.0307 25.0409 11.9794 24.8408 12.0075 24.6439C12.0357 24.447 12.1409 24.2693 12.3 24.15L17.2617 20.4288C17.2343 20.2089 17.2559 19.9856 17.3251 19.7751C17.3942 19.5646 17.5092 19.372 17.6617 19.2111C17.8141 19.0503 18.0003 18.9253 18.2069 18.845C18.4134 18.7648 18.6352 18.7313 18.8563 18.7469C19.0773 18.7626 19.2921 18.8271 19.4853 18.9357C19.6785 19.0443 19.8452 19.1943 19.9734 19.375C20.1017 19.5557 20.1883 19.7626 20.2271 19.9808C20.2658 20.199 20.2558 20.4231 20.1976 20.6369L21.0392 21.4785L24.7764 18.2752C24.7342 18.0536 24.7425 17.8253 24.8007 17.6073C24.8589 17.3893 24.9655 17.1873 25.1126 17.0162C25.2598 16.8451 25.4436 16.7095 25.6504 16.6193C25.8572 16.5291 26.0817 16.4868 26.3072 16.4954C26.5326 16.504 26.7533 16.5634 26.9526 16.6691C27.1519 16.7748 27.3249 16.9241 27.4585 17.1059C27.5921 17.2877 27.683 17.4973 27.7244 17.7191C27.7658 17.9409 27.7567 18.1691 27.6976 18.3869L28.5303 19.2196L33.2774 15H32.25C32.0511 15 31.8603 14.921 31.7197 14.7803C31.579 14.6397 31.5 14.4489 31.5 14.25C31.5 14.0511 31.579 13.8603 31.7197 13.7197C31.8603 13.579 32.0511 13.5 32.25 13.5H35.25C35.4489 13.5 35.6397 13.579 35.7803 13.7197C35.921 13.8603 36 14.0511 36 14.25Z" fill="url(#paint0_linear_321_1578)"/>
<defs>
<linearGradient id="paint0_linear_321_1578" x1="24" y1="1.5" x2="24" y2="46.5" gradientUnits="userSpaceOnUse">
<stop stop-color="#FA6635"/>
<stop offset="0.41" stop-color="#EA5C31"/>
<stop offset="1" stop-color="#6666CC"/>
</linearGradient>
</defs>
</svg>
