<svg width="48" height="48" viewBox="0 0 48 48" fill="none" xmlns="http://www.w3.org/2000/svg">
<path d="M33 4.5H6C5.80109 4.5 5.61032 4.57902 5.46967 4.71967C5.32902 4.86032 5.25 5.05109 5.25 5.25V9.75C5.25 9.94891 5.32902 10.1397 5.46967 10.2803C5.61032 10.421 5.80109 10.5 6 10.5H33C33.1989 10.5 33.3897 10.421 33.5303 10.2803C33.671 10.1397 33.75 9.94891 33.75 9.75V5.25C33.75 5.05109 33.671 4.86032 33.5303 4.71967C33.3897 4.57902 33.1989 4.5 33 4.5ZM32.25 9H6.75V6H32.25V9ZM33.75 14.25C33.75 14.4489 33.671 14.6397 33.5303 14.7803C33.3897 14.921 33.1989 15 33 15H21.75C21.5511 15 21.3603 14.921 21.2197 14.7803C21.079 14.6397 21 14.4489 21 14.25C21 14.0511 21.079 13.8603 21.2197 13.7197C21.3603 13.579 21.5511 13.5 21.75 13.5H33C33.1989 13.5 33.3897 13.579 33.5303 13.7197C33.671 13.8603 33.75 14.0511 33.75 14.25ZM33.75 17.25C33.75 17.4489 33.671 17.6397 33.5303 17.7803C33.3897 17.921 33.1989 18 33 18H21.75C21.5511 18 21.3603 17.921 21.2197 17.7803C21.079 17.6397 21 17.4489 21 17.25C21 17.0511 21.079 16.8603 21.2197 16.7197C21.3603 16.579 21.5511 16.5 21.75 16.5H33C33.1989 16.5 33.3897 16.579 33.5303 16.7197C33.671 16.8603 33.75 17.0511 33.75 17.25ZM33.75 20.25C33.75 20.4489 33.671 20.6397 33.5303 20.7803C33.3897 20.921 33.1989 21 33 21H21.75C21.5511 21 21.3603 20.921 21.2197 20.7803C21.079 20.6397 21 20.4489 21 20.25C21 20.0511 21.079 19.8603 21.2197 19.7197C21.3603 19.579 21.5511 19.5 21.75 19.5H33C33.1989 19.5 33.3897 19.579 33.5303 19.7197C33.671 19.8603 33.75 20.0511 33.75 20.25ZM16.5 33C16.5 33.1989 16.421 33.3897 16.2803 33.5303C16.1397 33.671 15.9489 33.75 15.75 33.75H6C5.80109 33.75 5.61032 33.671 5.46967 33.5303C5.32902 33.3897 5.25 33.1989 5.25 33C5.25 32.8011 5.32902 32.6103 5.46967 32.4697C5.61032 32.329 5.80109 32.25 6 32.25H15.75C15.9489 32.25 16.1397 32.329 16.2803 32.4697C16.421 32.6103 16.5 32.8011 16.5 33ZM16.5 36C16.5 36.1989 16.421 36.3897 16.2803 36.5303C16.1397 36.671 15.9489 36.75 15.75 36.75H6C5.80109 36.75 5.61032 36.671 5.46967 36.5303C5.32902 36.3897 5.25 36.1989 5.25 36C5.25 35.8011 5.32902 35.6103 5.46967 35.4697C5.61032 35.329 5.80109 35.25 6 35.25H15.75C15.9489 35.25 16.1397 35.329 16.2803 35.4697C16.421 35.6103 16.5 35.8011 16.5 36ZM16.5 39C16.5 39.1989 16.421 39.3897 16.2803 39.5303C16.1397 39.671 15.9489 39.75 15.75 39.75H6C5.80109 39.75 5.61032 39.671 5.46967 39.5303C5.32902 39.3897 5.25 39.1989 5.25 39C5.25 38.8011 5.32902 38.6103 5.46967 38.4697C5.61032 38.329 5.80109 38.25 6 38.25H15.75C15.9489 38.25 16.1397 38.329 16.2803 38.4697C16.421 38.6103 16.5 38.8011 16.5 39ZM16.5 42C16.5 42.1989 16.421 42.3897 16.2803 42.5303C16.1397 42.671 15.9489 42.75 15.75 42.75H6C5.80109 42.75 5.61032 42.671 5.46967 42.5303C5.32902 42.3897 5.25 42.1989 5.25 42C5.25 41.8011 5.32902 41.6103 5.46967 41.4697C5.61032 41.329 5.80109 41.25 6 41.25H15.75C15.9489 41.25 16.1397 41.329 16.2803 41.4697C16.421 41.6103 16.5 41.8011 16.5 42ZM33.75 23.25C33.75 23.4489 33.671 23.6397 33.5303 23.7803C33.3897 23.921 33.1989 24 33 24H21.75C21.5511 24 21.3603 23.921 21.2197 23.7803C21.079 23.6397 21 23.4489 21 23.25C21 23.0511 21.079 22.8603 21.2197 22.7197C21.3603 22.579 21.5511 22.5 21.75 22.5H33C33.1989 22.5 33.3897 22.579 33.5303 22.7197C33.671 22.8603 33.75 23.0511 33.75 23.25ZM33.75 26.25C33.75 26.4489 33.671 26.6397 33.5303 26.7803C33.3897 26.921 33.1989 27 33 27H6C5.80109 27 5.61032 26.921 5.46967 26.7803C5.32902 26.6397 5.25 26.4489 5.25 26.25C5.25 26.0511 5.32902 25.8603 5.46967 25.7197C5.61032 25.579 5.80109 25.5 6 25.5H33C33.1989 25.5 33.3897 25.579 33.5303 25.7197C33.671 25.8603 33.75 26.0511 33.75 26.25ZM33.75 29.25C33.75 29.4489 33.671 29.6397 33.5303 29.7803C33.3897 29.921 33.1989 30 33 30H6C5.80109 30 5.61032 29.921 5.46967 29.7803C5.32902 29.6397 5.25 29.4489 5.25 29.25C5.25 29.0511 5.32902 28.8603 5.46967 28.7197C5.61032 28.579 5.80109 28.5 6 28.5H33C33.1989 28.5 33.3897 28.579 33.5303 28.7197C33.671 28.8603 33.75 29.0511 33.75 29.25ZM33 31.5H18.75C18.5511 31.5 18.3603 31.579 18.2197 31.7197C18.079 31.8603 18 32.0511 18 32.25V42.75C18 42.9489 18.079 43.1397 18.2197 43.2803C18.3603 43.421 18.5511 43.5 18.75 43.5H33C33.1989 43.5 33.3897 43.421 33.5303 43.2803C33.671 43.1397 33.75 42.9489 33.75 42.75V32.25C33.75 32.0511 33.671 31.8603 33.5303 31.7197C33.3897 31.579 33.1989 31.5 33 31.5ZM32.25 33V34.1395L29.1 36.6594L27.2371 36.0385C27.1183 35.9989 26.9915 35.9897 26.8682 36.0116C26.7449 36.0336 26.629 36.0861 26.5312 36.1643L22.9869 39H21.75C21.6515 39 21.554 39.0194 21.463 39.0571C21.372 39.0948 21.2893 39.15 21.2197 39.2197L19.5 40.9394V33H32.25ZM20.5606 42L22.0606 40.5H23.25C23.4204 40.5001 23.5857 40.4421 23.7188 40.3357L27.15 37.5906L29.0129 38.2115C29.1317 38.2511 29.2585 38.2603 29.3818 38.2384C29.5051 38.2164 29.621 38.1639 29.7188 38.0857L32.25 36.0607V42H20.5606ZM42.75 6H36.75V2.25C36.75 2.05109 36.671 1.86032 36.5303 1.71967C36.3897 1.57902 36.1989 1.5 36 1.5H3C2.80109 1.5 2.61032 1.57902 2.46967 1.71967C2.32902 1.86032 2.25 2.05109 2.25 2.25V44.25C2.25069 44.8465 2.48797 45.4184 2.90978 45.8402C3.33158 46.262 3.90348 46.4993 4.5 46.5H38.25C39.0454 46.4991 39.8079 46.1827 40.3703 45.6203C40.9327 45.0579 41.2491 44.2954 41.25 43.5V42H45C45.1989 42 45.3897 41.921 45.5303 41.7803C45.671 41.6397 45.75 41.4489 45.75 41.25V9C45.7491 8.20462 45.4327 7.44208 44.8703 6.87967C44.3079 6.31725 43.5454 6.00089 42.75 6ZM3.75 44.25V3H35.25V43.5C35.2496 44.0269 35.3888 44.5445 35.6536 45H4.5C4.30116 44.9998 4.11052 44.9207 3.96992 44.7801C3.82931 44.6395 3.75022 44.4488 3.75 44.25ZM39.75 43.5C39.75 43.8978 39.592 44.2794 39.3107 44.5607C39.0294 44.842 38.6478 45 38.25 45C37.8522 45 37.4706 44.842 37.1893 44.5607C36.908 44.2794 36.75 43.8978 36.75 43.5V7.5H40.1536C39.8888 7.95554 39.7496 8.47312 39.75 9V43.5ZM44.25 40.5H41.25V9C41.25 8.60218 41.408 8.22064 41.6893 7.93934C41.9706 7.65804 42.3522 7.5 42.75 7.5C43.1478 7.5 43.5294 7.65804 43.8107 7.93934C44.092 8.22064 44.25 8.60218 44.25 9V40.5ZM12.75 12C11.5633 12 10.4033 12.3519 9.41658 13.0112C8.42988 13.6705 7.66085 14.6075 7.20672 15.7039C6.7526 16.8003 6.63378 18.0067 6.86529 19.1705C7.0968 20.3344 7.66824 21.4035 8.50736 22.2426C9.34647 23.0818 10.4156 23.6532 11.5795 23.8847C12.7433 24.1162 13.9497 23.9974 15.0461 23.5433C16.1425 23.0892 17.0795 22.3201 17.7388 21.3334C18.3981 20.3467 18.75 19.1867 18.75 18C18.7482 16.4092 18.1155 14.8842 16.9907 13.7593C15.8658 12.6345 14.3408 12.0018 12.75 12ZM17.25 17.9896L13.5 17.3647V13.5637C14.5461 13.7418 15.4958 14.2834 16.1818 15.093C16.8678 15.9027 17.2461 16.9284 17.25 17.9896ZM9.75628 14.6443C10.3872 14.0796 11.1651 13.7049 12 13.5637V16.4395L9.75628 14.6443ZM12.75 22.5C11.9663 22.5005 11.196 22.2961 10.5156 21.9072C9.83511 21.5183 9.26813 20.9583 8.87079 20.2827C8.47345 19.6072 8.25955 18.8395 8.2503 18.0558C8.24104 17.2721 8.43675 16.4996 8.81803 15.8149L12.2812 18.5857C12.3811 18.6659 12.4998 18.7191 12.6262 18.7402L17.0019 19.4694C16.6954 20.3534 16.1214 21.1201 15.3595 21.6632C14.5976 22.2062 13.6856 22.4987 12.75 22.5Z" fill="url(#paint0_linear_321_1551)"/>
<defs>
<linearGradient id="paint0_linear_321_1551" x1="24" y1="1.5" x2="24" y2="46.5" gradientUnits="userSpaceOnUse">
<stop stop-color="#FA6635"/>
<stop offset="0.41" stop-color="#EA5C31"/>
<stop offset="1" stop-color="#6666CC"/>
</linearGradient>
</defs>
</svg>
