<svg width="1440" height="600" viewBox="0 0 1440 600" fill="none" xmlns="http://www.w3.org/2000/svg">
<g clip-path="url(#clip0_321_1583)">
<rect width="1440" height="600" rx="12" fill="#4A4AAC"/>
<g opacity="0.05">
<path d="M495.929 -11.4558L454.275 30.2094C449.082 35.403 449.082 43.8235 454.275 49.0171L522.366 117.126C527.559 122.32 535.977 122.32 541.169 117.126L582.824 75.4608C588.016 70.2672 588.016 61.8467 582.824 56.6531L514.732 -11.4558C509.54 -16.6494 501.122 -16.6494 495.929 -11.4558Z" fill="#F5F5F5"/>
<path fill-rule="evenodd" clip-rule="evenodd" d="M704.573 186.046C701.258 189.362 697.943 192.394 693.21 192.341L624.711 191.33C617.389 191.224 611.38 185.39 611.362 178.085L610.387 -120.7C610.369 -128.024 616.325 -134.035 623.647 -134.053L682.556 -134.265C689.877 -134.301 695.639 -128.325 695.905 -121.02L702.535 67.1528L789.01 -19.3441C794.186 -24.5218 802.642 -24.5218 807.819 -19.3441L849.478 22.3262C854.655 27.504 854.655 35.9622 849.478 41.14L704.591 186.064L704.573 186.046Z" fill="#F5F5F5"/>
<path d="M922.312 354.058L854.22 422.166C849.028 427.36 849.028 435.781 854.22 440.974L895.875 482.639C901.067 487.833 909.485 487.833 914.677 482.639L982.769 414.53C987.962 409.337 987.962 400.916 982.769 395.723L941.115 354.058C935.922 348.864 927.504 348.864 922.312 354.058Z" fill="#F5F5F5"/>
<path fill-rule="evenodd" clip-rule="evenodd" d="M1051.68 232.272C1054.99 235.588 1058.03 238.904 1057.97 243.639L1056.96 312.155C1056.86 319.479 1051.02 325.49 1043.72 325.507L745.01 326.483C737.689 326.5 731.679 320.542 731.661 313.219L731.449 254.296C731.413 246.972 737.388 241.209 744.691 240.943L932.816 234.312L846.341 147.815C841.165 142.637 841.165 134.179 846.341 129.001L888.001 87.3306C893.177 82.1528 901.633 82.1528 906.81 87.3306L1051.7 232.255L1051.68 232.272Z" fill="#F5F5F5"/>
<path d="M1171.76 104.546L1103.66 172.655C1098.47 177.848 1098.47 186.269 1103.66 191.462L1145.32 233.128C1150.51 238.321 1158.93 238.321 1164.12 233.128L1232.21 165.019C1237.41 159.825 1237.41 151.405 1232.21 146.211L1190.56 104.546C1185.37 99.3522 1176.95 99.3522 1171.76 104.546Z" fill="#F5F5F5"/>
<path fill-rule="evenodd" clip-rule="evenodd" d="M1301.12 -17.2335C1304.44 -13.9176 1307.47 -10.6017 1307.42 -5.86729L1306.41 62.6494C1306.3 69.9727 1300.47 75.9839 1293.16 76.0016L994.455 76.9768C987.134 76.9946 981.124 71.0366 981.106 63.7132L980.894 4.78969C980.858 -2.53365 986.832 -8.29655 994.136 -8.56255L1182.26 -15.1944L1095.79 -101.691C1090.61 -106.869 1090.61 -115.327 1095.79 -120.505L1137.45 -162.175C1142.62 -167.353 1151.08 -167.353 1156.25 -162.175L1301.14 -17.2512L1301.12 -17.2335Z" fill="#F5F5F5"/>
<path d="M1261.26 452.667L1219.6 494.332C1214.41 499.526 1214.41 507.947 1219.6 513.14L1287.7 581.249C1292.89 586.443 1301.31 586.443 1306.5 581.249L1348.15 539.584C1353.35 534.39 1353.35 525.97 1348.15 520.776L1280.06 452.667C1274.87 447.474 1266.45 447.474 1261.26 452.667Z" fill="#F5F5F5"/>
<path fill-rule="evenodd" clip-rule="evenodd" d="M1097.86 383.741C1101.17 380.425 1104.49 377.393 1109.22 377.446L1177.72 378.457C1185.04 378.563 1191.05 384.397 1191.07 391.703L1192.05 690.488C1192.06 697.811 1186.11 703.822 1178.79 703.84L1119.88 704.053C1112.56 704.088 1106.79 698.112 1106.53 690.807L1099.9 502.634L1013.42 589.131C1008.25 594.309 999.791 594.309 994.614 589.131L952.955 547.461C947.778 542.283 947.778 533.825 952.955 528.647L1097.84 383.723L1097.86 383.741Z" fill="#F5F5F5"/>
<path fill-rule="evenodd" clip-rule="evenodd" d="M1347.3 134.233C1350.62 130.917 1353.93 127.885 1358.67 127.938L1427.17 128.949C1434.49 129.055 1440.5 134.889 1440.52 142.195L1441.49 440.98C1441.51 448.303 1435.55 454.314 1428.23 454.332L1369.32 454.545C1362 454.58 1356.24 448.604 1355.97 441.299L1349.34 253.126L1262.87 339.623C1257.69 344.801 1249.24 344.801 1244.06 339.623L1202.4 297.953C1197.22 292.775 1197.22 284.317 1202.4 279.139L1347.29 134.215L1347.3 134.233Z" fill="#F5F5F5"/>
<path fill-rule="evenodd" clip-rule="evenodd" d="M-246.706 337.726C-250.021 334.41 -253.052 331.094 -252.999 326.36L-251.989 257.843C-251.883 250.52 -246.05 244.509 -238.746 244.491L59.9633 243.516C67.2848 243.498 73.2945 249.456 73.3123 256.779L73.5247 315.703C73.5602 323.026 67.5861 328.789 60.2823 329.055L-127.843 335.687L-41.3675 422.184C-36.1911 427.362 -36.1911 435.82 -41.3675 440.997L-83.0273 482.668C-88.2038 487.846 -96.6598 487.846 -101.836 482.668L-246.724 337.744L-246.706 337.726Z" fill="#F5F5F5"/>
<path fill-rule="evenodd" clip-rule="evenodd" d="M2.72082 88.2378C-0.594234 84.9219 -3.62574 81.606 -3.57255 76.8715L-2.56196 8.35491C-2.45559 1.03157 3.37673 -4.97964 10.6805 -4.99738L309.39 -5.97262C316.712 -5.99035 322.721 -0.0323615 322.739 7.29097L322.952 66.2145C322.987 73.5379 317.013 79.3008 309.709 79.5668L121.584 86.1985L208.059 172.696C213.236 177.873 213.236 186.331 208.059 191.509L166.4 233.179C161.223 238.357 152.767 238.357 147.59 233.179L2.70308 88.2555L2.72082 88.2378Z" fill="#F5F5F5"/>
<path d="M-2.89497 487.511L-44.5497 529.176C-49.742 534.37 -49.742 542.79 -44.5497 547.984L23.542 616.093C28.7343 621.286 37.1526 621.286 42.3449 616.093L83.9997 574.428C89.192 569.234 89.192 560.813 83.9997 555.62L15.908 487.511C10.7157 482.317 2.29732 482.317 -2.89497 487.511Z" fill="#F5F5F5"/>
<path fill-rule="evenodd" clip-rule="evenodd" d="M205.737 685.009C202.422 688.325 199.107 691.357 194.374 691.304L125.874 690.293C118.553 690.187 112.543 684.353 112.525 677.047L111.55 378.262C111.533 370.939 117.489 364.928 124.811 364.91L183.72 364.697C191.041 364.662 196.802 370.638 197.068 377.943L203.698 566.116L290.173 479.619C295.35 474.441 303.806 474.441 308.983 479.619L350.642 521.289C355.819 526.467 355.819 534.925 350.642 540.103L205.755 685.027L205.737 685.009Z" fill="#F5F5F5"/>
<path d="M246.52 238.009L204.865 279.675C199.673 284.868 199.673 293.289 204.865 298.482L272.957 366.591C278.149 371.785 286.567 371.785 291.759 366.591L333.414 324.926C338.607 319.732 338.607 311.312 333.414 306.118L265.323 238.009C260.13 232.816 251.712 232.816 246.52 238.009Z" fill="#F5F5F5"/>
<path fill-rule="evenodd" clip-rule="evenodd" d="M455.182 435.519C451.867 438.835 448.552 441.867 443.819 441.814L375.319 440.803C367.998 440.697 361.988 434.863 361.97 427.557L360.996 128.772C360.978 121.449 366.934 115.438 374.256 115.42L433.165 115.207C440.486 115.172 446.248 121.147 446.513 128.453L453.144 316.625L539.619 230.129C544.795 224.951 553.251 224.951 558.427 230.129L600.087 271.799C605.264 276.977 605.264 285.435 600.087 290.613L455.2 435.537L455.182 435.519Z" fill="#F5F5F5"/>
<path fill-rule="evenodd" clip-rule="evenodd" d="M552.843 731.237C556.158 734.553 559.189 737.869 559.136 742.603L558.126 811.12C558.02 818.443 552.187 824.455 544.883 824.472L246.174 825.448C238.852 825.465 232.843 819.507 232.825 812.184L232.612 753.26C232.577 745.937 238.551 740.174 245.854 739.908L433.98 733.276L347.504 646.779C342.328 641.602 342.328 633.143 347.504 627.966L389.164 586.295C394.341 581.118 402.797 581.118 407.973 586.295L552.861 731.219L552.843 731.237Z" fill="#F5F5F5"/>
<path d="M741.664 584.264L743.157 680.574C743.271 687.918 749.315 693.779 756.657 693.665L815.559 692.752C822.901 692.638 828.76 686.592 828.646 679.248L827.153 582.939C827.039 575.595 820.995 569.734 813.653 569.847L754.752 570.761C747.409 570.875 741.55 576.92 741.664 584.264Z" fill="#F5F5F5"/>
<path fill-rule="evenodd" clip-rule="evenodd" d="M744.299 406.594C748.986 406.521 753.476 406.652 756.838 409.986L805.316 458.403C810.499 463.577 810.754 471.95 805.683 477.207L598.464 692.408C593.381 697.679 584.921 697.848 579.652 692.763L537.208 651.901C531.927 646.829 531.948 638.528 536.841 633.097L663.027 493.376L540.747 495.272C533.427 495.386 527.356 489.498 527.242 482.177L526.329 423.253C526.215 415.932 532.101 409.859 539.421 409.745L744.298 406.568L744.299 406.594Z" fill="#F5F5F5"/>
</g>
</g>
<defs>
<clipPath id="clip0_321_1583">
<rect width="1440" height="600" rx="12" fill="white"/>
</clipPath>
</defs>
</svg>
