<svg width="12" height="112" viewBox="0 0 12 112" fill="none" xmlns="http://www.w3.org/2000/svg">
<path d="M6 0.666667C3.05448 0.666667 0.666667 3.05448 0.666667 6C0.666667 8.94552 3.05448 11.3333 6 11.3333C8.94552 11.3333 11.3333 8.94552 11.3333 6C11.3333 3.05448 8.94552 0.666667 6 0.666667ZM6 100.667C3.05448 100.667 0.666667 103.054 0.666667 106C0.666667 108.946 3.05448 111.333 6 111.333C8.94552 111.333 11.3333 108.946 11.3333 106C11.3333 103.054 8.94552 100.667 6 100.667ZM5 6L5 106H7L7 6H5Z" fill="#FA6635"/>
</svg>
