<svg width="128" height="21" viewBox="0 0 128 21" fill="none" xmlns="http://www.w3.org/2000/svg">
<g clip-path="url(#clip0_2001_29)">
<path fill-rule="evenodd" clip-rule="evenodd" d="M14.8164 19.5389V12.8712C14.8164 12.3645 15.2331 11.9502 15.7425 11.9502H19.8441C20.3535 11.9502 20.7701 12.3645 20.7701 12.8712V19.5389C20.7701 20.0455 20.3535 20.4599 19.8441 20.4599H15.7425C15.2331 20.4599 14.8164 20.0455 14.8164 19.5389Z" fill="#6666CC"/>
<path fill-rule="evenodd" clip-rule="evenodd" d="M15.193 0.574219C15.5192 0.574222 15.8319 0.587403 16.0617 0.822698L19.385 4.22618C19.7398 4.58959 19.7487 5.16937 19.3897 5.52868L4.73053 20.2037C4.37154 20.563 3.78223 20.5654 3.42084 20.2085L0.510085 17.3344C0.148558 16.9777 0.158034 16.4027 0.505293 16.0322L9.44091 6.49565H0.926156C0.416739 6.49565 0 6.08121 0 5.57468V1.49539C0 0.988738 0.416739 0.574219 0.926156 0.574219H15.193Z" fill="#F5F5F5"/>
<path d="M27.0213 20.3524V18.2168L38.6616 2.00299V2.9865H27.0213V0.541786H41.4587V2.6774L29.7901 18.8912V17.9077H41.7977V20.3524H27.0213ZM45.0917 20.3524V0.541786H48.03V20.3524H45.0917ZM57.5947 20.3524V11.0512L58.2444 12.9058L49.8532 0.541786H53.2436L59.4876 10.0115H58.7812L65.0253 0.541786H68.3027L59.9396 12.9058L60.5329 11.0512V20.3524H57.5947ZM66.2333 20.3524L75.1045 0.541786H77.6192L86.6319 20.3524H83.6089L81.1513 14.7324L82.3942 15.5192H70.33L71.6579 14.7324L69.1999 20.3524H66.2333ZM76.3199 3.7452L72.0252 13.8331L71.3471 13.1869H81.3768L80.8121 13.8331L76.4327 3.7452H76.3199ZM89.2653 20.3524V0.541786H97.6844C99.8125 0.541786 101.461 1.04759 102.629 2.0592C103.796 3.05207 104.38 4.44771 104.38 6.24612C104.38 7.42633 104.117 8.43794 103.589 9.28096C103.062 10.1239 102.318 10.7703 101.357 11.2199C100.397 11.6507 99.2664 11.8661 97.9671 11.8661L98.419 11.4165H99.1818C99.9543 11.4165 100.641 11.6133 101.245 12.0066C101.866 12.4001 102.375 13.0276 102.77 13.8894L105.623 20.3524H102.403L99.5773 13.8613C99.2946 13.0932 98.8523 12.5968 98.2498 12.372C97.6658 12.1472 96.9401 12.0348 96.0742 12.0348H92.203V20.3524H89.2653ZM92.203 9.81484H97.2043C98.6171 9.81484 99.6812 9.51513 100.397 8.91565C101.131 8.31616 101.498 7.45443 101.498 6.33042C101.498 5.18768 101.131 4.32594 100.397 3.7452C99.6812 3.16447 98.6171 2.8741 97.2043 2.8741H92.203V9.81484ZM108.965 20.3524V0.541786H115.859C118.101 0.541786 119.994 0.925822 121.538 1.69389C123.101 2.46197 124.278 3.58597 125.07 5.06591C125.879 6.52712 126.284 8.31616 126.284 10.4331C126.284 12.5312 125.879 14.3202 125.07 15.8002C124.278 17.2802 123.101 18.4135 121.538 19.2003C119.994 19.9683 118.101 20.3524 115.859 20.3524H108.965ZM111.903 17.9077H115.689C118.251 17.9077 120.153 17.2894 121.397 16.0531C122.658 14.8167 123.29 12.9433 123.29 10.4331C123.29 7.92273 122.658 6.05878 121.397 4.84111C120.153 3.6047 118.251 2.9865 115.689 2.9865H111.903V17.9077Z" fill="#F5F5F5"/>
</g>
<defs>
<clipPath id="clip0_2001_29">
<rect width="128" height="20" fill="white" transform="translate(0 0.5)"/>
</clipPath>
</defs>
</svg>
